<?xml version="1.0" encoding="utf-8"?>
<!-- Generator: Adobe Illustrator 25.4.1, SVG Export Plug-In . SVG Version: 6.00 Build 0)  -->
<svg version="1.1" id="圖層_1" xmlns="http://www.w3.org/2000/svg" xmlns:xlink="http://www.w3.org/1999/xlink" x="0px" y="0px"
	 viewBox="0 0 219.86 200.42" style="enable-background:new 0 0 219.86 200.42;" xml:space="preserve">
<style type="text/css">
	.st0{fill:#006098;}
	.st1{fill:#00416B;}
	.st2{fill:#6AAAE4;}
	.st3{fill:#0071CE;}
	.st4{fill:#92C0E9;}
</style>
<g>
	<path class="st0" d="M185.17,56.96c-0.01-0.16-0.02-0.33-0.05-0.49c-0.02-0.11-0.04-0.22-0.06-0.32c-0.04-0.16-0.09-0.31-0.14-0.46
		c-0.03-0.09-0.07-0.19-0.11-0.28c-0.07-0.16-0.16-0.31-0.25-0.46c-0.04-0.07-0.08-0.15-0.13-0.22c-0.14-0.2-0.3-0.4-0.47-0.57
		c-0.01-0.01-0.01-0.02-0.02-0.02c-0.18-0.18-0.38-0.34-0.59-0.49c-0.07-0.05-0.14-0.08-0.21-0.13c-0.15-0.09-0.3-0.18-0.46-0.25
		c-0.09-0.04-0.19-0.07-0.28-0.11c-0.15-0.06-0.31-0.11-0.47-0.14c-0.1-0.02-0.21-0.04-0.32-0.06c-0.16-0.03-0.32-0.04-0.49-0.05
		c-0.11,0-0.23-0.01-0.34,0c-0.17,0.01-0.33,0.02-0.5,0.05c-0.1,0.02-0.2,0.03-0.31,0.05c-1.28,0.3-2.33,1.17-2.88,2.34
		c-0.05,0.1-0.09,0.21-0.13,0.31c-0.05,0.13-0.09,0.27-0.13,0.41c-0.02,0.09-0.06,0.19-0.07,0.28c-0.04,0.23-0.07,0.48-0.07,0.72
		c0,0.09,0,0.19,0.01,0.28c0,0.07,0.01,0.13,0.01,0.2c0.01,0.11,0.03,0.22,0.05,0.33c0.01,0.06,0.02,0.11,0.03,0.17
		c0.03,0.14,0.07,0.28,0.12,0.42c0.01,0.02,0.01,0.04,0.02,0.06c0.09,0.27,0.05,0.56-0.15,0.77l-13.14,13.06
		c-0.2,0.19-0.49,0.24-0.75,0.14c0,0,0,0,0,0c-0.15-0.06-0.31-0.1-0.47-0.14c-0.05-0.01-0.1-0.02-0.15-0.03
		c-0.11-0.02-0.23-0.04-0.34-0.06c-0.06-0.01-0.13-0.01-0.19-0.01c-0.1-0.01-0.2-0.01-0.3-0.01c-0.24,0-0.48,0.03-0.71,0.07
		c-0.1,0.02-0.2,0.04-0.29,0.07c-0.13,0.03-0.25,0.07-0.38,0.12c-0.11,0.04-0.22,0.08-0.33,0.13c-0.95,0.43-1.71,1.2-2.13,2.15
		c-0.03,0.07-0.05,0.15-0.08,0.22c-0.06,0.16-0.11,0.32-0.15,0.48c-0.02,0.08-0.04,0.17-0.06,0.25c-0.04,0.23-0.07,0.47-0.07,0.72
		c0,0.04,0,0.08,0,0.12c0.01,0.29,0.03,0.57,0.1,0.84c0,0.02,0.01,0.03,0.01,0.05c0.03,0.14,0.07,0.27,0.12,0.41
		c0.09,0.26,0.04,0.54-0.15,0.73l-11.89,11.63l-1.05,1.03c-0.2,0.2-0.5,0.24-0.77,0.14c-0.2-0.07-0.4-0.13-0.61-0.17
		c-0.05-0.01-0.11-0.02-0.16-0.03c-0.21-0.04-0.43-0.06-0.66-0.06c-0.22,0-0.44,0.02-0.65,0.06c-0.05,0.01-0.1,0.02-0.16,0.03
		c-0.21,0.04-0.41,0.09-0.6,0.16c-0.27,0.1-0.56,0.05-0.76-0.15l-1.49-1.48l-11.8-11.71v0c-0.2-0.2-0.25-0.5-0.15-0.76
		c0.01-0.02,0.01-0.04,0.01-0.05c0.05-0.14,0.09-0.28,0.12-0.42c0.01-0.05,0.02-0.11,0.03-0.17c0.02-0.11,0.04-0.22,0.05-0.33
		c0.01-0.07,0.01-0.13,0.01-0.2c0-0.09,0.01-0.19,0-0.28c0-0.25-0.03-0.49-0.07-0.72c-0.02-0.09-0.05-0.18-0.07-0.27
		c-0.04-0.14-0.08-0.28-0.13-0.41c-0.04-0.1-0.08-0.2-0.13-0.3c-0.66-1.43-2.09-2.42-3.75-2.46c-0.07,0-0.14,0-0.21,0
		c-0.22,0.01-0.44,0.03-0.65,0.07c-0.04,0.01-0.08,0.01-0.13,0.02c-0.24,0.05-0.48,0.13-0.7,0.22c-0.06,0.02-0.11,0.05-0.17,0.07
		c-0.18,0.08-0.36,0.18-0.52,0.28c-0.05,0.03-0.09,0.06-0.14,0.09c-0.2,0.14-0.38,0.29-0.55,0.46c-0.04,0.04-0.07,0.08-0.1,0.11
		c-0.14,0.14-0.26,0.3-0.38,0.46c-0.04,0.05-0.07,0.1-0.11,0.15c-0.13,0.2-0.25,0.41-0.35,0.64c-0.01,0.03-0.02,0.07-0.04,0.1
		c-0.08,0.2-0.14,0.41-0.19,0.62c-0.02,0.07-0.03,0.13-0.04,0.2c-0.05,0.25-0.08,0.5-0.08,0.76c0,0.22,0.02,0.43,0.06,0.63
		c0.01,0.05,0.02,0.1,0.03,0.15c0.04,0.2,0.09,0.4,0.16,0.59c0.09,0.26,0.04,0.55-0.15,0.74v0l-13.12,12.92
		c-0.2,0.2-0.49,0.24-0.76,0.14c0,0,0,0,0,0c-0.15-0.06-0.31-0.1-0.48-0.14c-0.05-0.01-0.1-0.02-0.15-0.03
		c-0.11-0.02-0.23-0.05-0.35-0.06c-0.06-0.01-0.13-0.01-0.2-0.01c-0.1-0.01-0.2-0.01-0.3-0.01c-0.24,0-0.48,0.03-0.71,0.07
		c-0.1,0.02-0.21,0.05-0.31,0.08c-0.12,0.03-0.24,0.07-0.35,0.11c-0.12,0.04-0.24,0.09-0.36,0.14c-0.95,0.44-1.72,1.22-2.13,2.19
		c0,0.01-0.01,0.02-0.01,0.03c-0.09,0.21-0.15,0.43-0.2,0.66c-0.01,0.06-0.03,0.13-0.04,0.19c-0.04,0.24-0.07,0.48-0.07,0.73
		c0,0.04,0,0.09,0,0.13c0.01,0.27,0.03,0.54,0.09,0.8c0,0.02,0.01,0.04,0.02,0.06c0.03,0.13,0.06,0.25,0.1,0.37
		c0.08,0.25,0.03,0.53-0.16,0.71l-13,12.33h0c-0.21,0.2-0.51,0.24-0.78,0.13c0,0,0,0-0.01,0c-0.2-0.08-0.42-0.14-0.63-0.18
		c-0.05-0.01-0.11-0.02-0.16-0.03c-0.22-0.04-0.45-0.07-0.69-0.07c-0.22,0-0.44,0.02-0.65,0.06c-0.05,0.01-0.1,0.02-0.16,0.03
		c-0.21,0.04-0.41,0.09-0.61,0.17c-0.27,0.1-0.56,0.05-0.76-0.15L68.3,96.4c-0.2-0.2-0.25-0.49-0.16-0.76
		c0.01-0.02,0.01-0.04,0.02-0.06c0.05-0.13,0.08-0.27,0.12-0.41c0.01-0.06,0.02-0.11,0.03-0.17c0.02-0.11,0.04-0.22,0.05-0.33
		c0.01-0.07,0.01-0.13,0.01-0.2c0-0.09,0.01-0.18,0-0.28c0-0.25-0.03-0.49-0.07-0.72c-0.02-0.09-0.05-0.18-0.07-0.26
		c-0.04-0.15-0.08-0.29-0.13-0.43c-0.04-0.1-0.08-0.19-0.12-0.29c-0.66-1.43-2.09-2.43-3.76-2.46c-0.07,0-0.14,0-0.21,0
		c-0.22,0.01-0.44,0.03-0.65,0.07c-0.04,0.01-0.08,0.01-0.12,0.02c-0.24,0.05-0.48,0.13-0.7,0.22c-0.06,0.02-0.11,0.05-0.17,0.08
		c-0.18,0.08-0.36,0.18-0.52,0.28c-0.05,0.03-0.09,0.05-0.14,0.09c-0.2,0.14-0.38,0.29-0.55,0.46c-0.04,0.04-0.07,0.08-0.1,0.11
		c-0.14,0.14-0.26,0.3-0.38,0.46c-0.04,0.05-0.07,0.1-0.11,0.15c-0.13,0.2-0.25,0.41-0.35,0.64c-0.01,0.03-0.02,0.07-0.04,0.1
		c-0.08,0.2-0.14,0.41-0.19,0.62c-0.02,0.07-0.03,0.13-0.04,0.2c-0.05,0.25-0.08,0.5-0.08,0.76c0,0.24,0.03,0.47,0.07,0.7
		c0.01,0.05,0.02,0.11,0.03,0.16c0.05,0.22,0.11,0.44,0.19,0.65c0,0,0,0.01,0,0.01c0.11,0.27,0.07,0.57-0.13,0.78h0l-3.34,3.58
		l-9.77,10.47c-0.19,0.2-0.47,0.26-0.74,0.17c-0.1-0.03-0.21-0.06-0.32-0.08c-0.04-0.01-0.07-0.02-0.11-0.03
		c-0.25-0.05-0.5-0.08-0.77-0.08c-0.05,0-0.11,0-0.16,0c-0.26,0.01-0.51,0.03-0.76,0.08c-0.03,0-0.05,0.01-0.08,0.02
		c-1.58,0.35-2.83,1.58-3.21,3.15c-0.02,0.1-0.05,0.21-0.06,0.31c-0.03,0.16-0.04,0.32-0.05,0.49c-0.01,0.12-0.01,0.23-0.01,0.35
		c0.01,0.17,0.03,0.33,0.05,0.49c0.02,0.11,0.03,0.21,0.05,0.31c0.04,0.17,0.09,0.33,0.15,0.49c0.03,0.09,0.06,0.18,0.09,0.26
		c0.09,0.2,0.19,0.38,0.3,0.56c0.03,0.04,0.04,0.09,0.07,0.12c0.15,0.21,0.31,0.41,0.49,0.6c0.05,0.05,0.11,0.1,0.17,0.15
		c0.14,0.12,0.27,0.24,0.42,0.35c0.08,0.06,0.17,0.1,0.25,0.15c0.14,0.08,0.28,0.16,0.43,0.23c0.1,0.04,0.2,0.08,0.3,0.12
		c0.15,0.05,0.3,0.1,0.45,0.14c0.11,0.03,0.22,0.05,0.33,0.06c0.16,0.03,0.32,0.04,0.48,0.05c0.11,0.01,0.23,0.01,0.35,0.01
		c0.17-0.01,0.33-0.03,0.49-0.05c0.1-0.02,0.21-0.03,0.31-0.05c1.28-0.29,2.33-1.16,2.88-2.32c0.06-0.13,0.11-0.27,0.16-0.4
		c0.04-0.1,0.07-0.21,0.1-0.31c0.03-0.12,0.06-0.23,0.09-0.35c0.04-0.23,0.07-0.47,0.07-0.71c0-0.11-0.01-0.23-0.02-0.34
		c0-0.06,0-0.13-0.01-0.19c-0.02-0.14-0.05-0.28-0.08-0.41c-0.01-0.04-0.01-0.07-0.02-0.11c-0.04-0.17-0.1-0.33-0.16-0.5
		c0,0,0-0.01,0-0.01c-0.11-0.27-0.07-0.57,0.13-0.78l10.53-11.29l2.55-2.73c0.19-0.2,0.48-0.3,0.74-0.21
		c0.09,0.03,0.18,0.04,0.28,0.07c0.08,0.02,0.15,0.04,0.23,0.05c0.26,0.05,0.52,0.08,0.79,0.08c0.22,0,0.44-0.02,0.65-0.06
		c0.05-0.01,0.1-0.02,0.16-0.03c0.21-0.04,0.41-0.09,0.61-0.17c0.27-0.1,0.56-0.05,0.76,0.15c0,0,0,0,0,0l13.12,12.98c0,0,0,0,0,0
		c0.2,0.2,0.25,0.5,0.16,0.76c-0.01,0.02-0.01,0.04-0.02,0.06c-0.04,0.13-0.08,0.27-0.12,0.41c-0.01,0.06-0.02,0.11-0.03,0.17
		c-0.02,0.11-0.04,0.22-0.05,0.33c-0.01,0.07-0.01,0.13-0.01,0.2c0,0.09-0.01,0.18,0,0.28c0,0.25,0.03,0.49,0.07,0.72
		c0.02,0.09,0.05,0.18,0.07,0.27c0.04,0.14,0.08,0.28,0.13,0.42c0.04,0.1,0.08,0.2,0.12,0.3c0.66,1.43,2.09,2.42,3.75,2.46
		c0.07,0,0.14,0,0.21,0c0.22-0.01,0.44-0.03,0.65-0.07c0.04-0.01,0.08-0.01,0.13-0.02c0.24-0.05,0.48-0.13,0.7-0.22
		c0.06-0.02,0.11-0.05,0.17-0.07c0.18-0.08,0.36-0.18,0.52-0.28c0.05-0.03,0.09-0.06,0.14-0.09c0.2-0.14,0.38-0.29,0.55-0.46
		c0.04-0.04,0.07-0.07,0.1-0.11c0.14-0.14,0.26-0.3,0.38-0.46c0.04-0.05,0.07-0.1,0.11-0.15c0.13-0.2,0.25-0.41,0.35-0.64
		c0.01-0.03,0.02-0.06,0.03-0.1c0.08-0.2,0.14-0.41,0.19-0.62c0.02-0.06,0.03-0.13,0.04-0.2c0.05-0.25,0.08-0.5,0.08-0.76
		c0-0.28-0.04-0.55-0.09-0.81c-0.02-0.08-0.04-0.15-0.06-0.23c-0.02-0.09-0.04-0.19-0.07-0.28c-0.09-0.27,0.01-0.56,0.21-0.75
		l12.96-12.29c0.2-0.19,0.5-0.23,0.76-0.13c0,0,0.01,0,0.01,0c0.15,0.06,0.31,0.11,0.47,0.15c0,0,0.01,0,0.01,0
		c0.16,0.04,0.33,0.07,0.5,0.1c0.05,0.01,0.11,0.01,0.17,0.01c0.12,0.01,0.23,0.02,0.35,0.02c0.24,0,0.48-0.03,0.71-0.07
		c0.11-0.02,0.21-0.04,0.32-0.07c0.11-0.03,0.22-0.06,0.33-0.1c0.13-0.04,0.25-0.09,0.38-0.14c0.94-0.43,1.7-1.19,2.12-2.14
		c0.04-0.09,0.07-0.18,0.1-0.27c0.05-0.14,0.1-0.29,0.14-0.44c0.02-0.09,0.05-0.18,0.06-0.27c0.04-0.23,0.07-0.47,0.07-0.71
		c0-0.1,0-0.19-0.01-0.29c0-0.06,0-0.13-0.01-0.19c-0.01-0.11-0.03-0.22-0.05-0.34c-0.01-0.05-0.01-0.1-0.03-0.14
		c-0.04-0.16-0.08-0.31-0.13-0.46c0,0,0,0,0,0c-0.09-0.26-0.04-0.54,0.15-0.73h0l13.12-12.92c0,0,0,0,0,0
		c0.2-0.2,0.5-0.24,0.77-0.15c0.2,0.07,0.4,0.12,0.61,0.17c0.05,0.01,0.1,0.02,0.16,0.03c0.21,0.04,0.43,0.06,0.65,0.06
		c0.22,0,0.44-0.02,0.65-0.06c0.05-0.01,0.1-0.02,0.16-0.03c0.21-0.04,0.41-0.09,0.6-0.16c0.27-0.1,0.56-0.05,0.76,0.15l4.96,4.92
		l8.33,8.27c0.2,0.2,0.25,0.5,0.15,0.76c-0.01,0.02-0.01,0.04-0.02,0.06c-0.05,0.14-0.09,0.27-0.12,0.41
		c-0.01,0.06-0.02,0.11-0.03,0.17c-0.02,0.11-0.04,0.22-0.05,0.33c-0.01,0.07-0.01,0.13-0.01,0.2c0,0.09-0.01,0.19-0.01,0.28
		c0,0.25,0.03,0.49,0.07,0.72c0.02,0.09,0.05,0.18,0.07,0.27c0.04,0.14,0.08,0.28,0.13,0.41c0.04,0.1,0.08,0.2,0.12,0.3
		c0.66,1.43,2.09,2.42,3.75,2.46c0.07,0,0.14,0,0.21,0c0.22-0.01,0.44-0.03,0.65-0.07c0.04-0.01,0.08-0.01,0.12-0.02
		c0.24-0.05,0.48-0.13,0.7-0.22c0.06-0.02,0.11-0.05,0.17-0.07c0.18-0.08,0.36-0.18,0.52-0.28c0.05-0.03,0.09-0.06,0.14-0.09
		c0.2-0.14,0.38-0.29,0.55-0.46c0.04-0.04,0.07-0.08,0.1-0.11c0.14-0.14,0.26-0.3,0.38-0.46c0.04-0.05,0.07-0.1,0.11-0.15
		c0.13-0.2,0.25-0.41,0.35-0.64c0.01-0.03,0.02-0.07,0.04-0.1c0.08-0.2,0.14-0.4,0.19-0.62c0.02-0.06,0.03-0.13,0.04-0.2
		c0.05-0.25,0.08-0.5,0.08-0.76c0-0.29-0.04-0.57-0.1-0.84c-0.02-0.08-0.04-0.16-0.06-0.24c-0.03-0.1-0.04-0.2-0.07-0.29
		c-0.09-0.26-0.04-0.54,0.15-0.73l12.95-12.67c0.2-0.19,0.49-0.24,0.75-0.14c0,0,0,0,0.01,0c0.15,0.06,0.31,0.11,0.47,0.15
		c0.04,0.01,0.08,0.01,0.12,0.02c0.12,0.03,0.24,0.05,0.37,0.07c0.06,0.01,0.13,0.01,0.19,0.01c0.1,0.01,0.21,0.01,0.31,0.01
		c0.24,0,0.48-0.03,0.71-0.07c0.1-0.02,0.2-0.04,0.31-0.07c0.12-0.03,0.24-0.07,0.35-0.11c0.12-0.04,0.24-0.08,0.36-0.14
		c0.94-0.43,1.7-1.19,2.12-2.13c0.04-0.1,0.07-0.19,0.11-0.29c0.05-0.14,0.09-0.28,0.13-0.42c0.02-0.09,0.05-0.18,0.06-0.27
		c0.04-0.23,0.07-0.47,0.07-0.71c0-0.1,0-0.2-0.01-0.3c0-0.06,0-0.13-0.01-0.19c-0.01-0.12-0.03-0.23-0.06-0.34
		c-0.01-0.05-0.01-0.1-0.03-0.14c-0.04-0.16-0.08-0.31-0.14-0.46c0,0,0,0,0,0c-0.09-0.26-0.05-0.54,0.15-0.73v0l13.15-13.07
		c0.2-0.2,0.5-0.25,0.77-0.15c0.01,0,0.02,0.01,0.04,0.01c0.14,0.05,0.29,0.09,0.44,0.13c0.05,0.01,0.11,0.02,0.17,0.03
		c0.11,0.02,0.22,0.04,0.33,0.05c0.07,0.01,0.13,0.01,0.2,0.01c0.1,0.01,0.19,0.01,0.29,0.01c0.24,0,0.48-0.03,0.72-0.07
		c0.1-0.02,0.2-0.05,0.3-0.08c0.13-0.03,0.25-0.07,0.37-0.12c0.11-0.04,0.23-0.09,0.34-0.14c1.16-0.55,2.03-1.6,2.33-2.88
		c0.02-0.1,0.04-0.21,0.05-0.31c0.03-0.16,0.04-0.33,0.05-0.5C185.18,57.18,185.18,57.07,185.17,56.96z"/>
	<path class="st1" d="M18.78,45.92"/>
	<g>
		<g>
			<path class="st0" d="M15.74,178.22c0,0.23-0.01,0.42-0.03,0.58c-0.02,0.16-0.05,0.29-0.09,0.39c-0.04,0.1-0.09,0.18-0.14,0.22
				c-0.06,0.05-0.12,0.07-0.2,0.07h-6.8c-0.25,0-0.46-0.07-0.64-0.22c-0.17-0.15-0.26-0.39-0.26-0.73v-13.48
				c0-0.08,0.02-0.15,0.07-0.21c0.05-0.06,0.13-0.11,0.25-0.15c0.11-0.04,0.27-0.07,0.46-0.09c0.2-0.02,0.44-0.03,0.73-0.03
				c0.3,0,0.54,0.01,0.73,0.03c0.19,0.02,0.34,0.05,0.46,0.09c0.11,0.04,0.2,0.09,0.25,0.15c0.05,0.06,0.07,0.13,0.07,0.21v11.94
				h4.67c0.08,0,0.14,0.02,0.2,0.06c0.06,0.04,0.1,0.11,0.14,0.21c0.04,0.1,0.07,0.22,0.09,0.38
				C15.73,177.8,15.74,177.99,15.74,178.22z"/>
			<path class="st0" d="M30.4,178.36c0.09,0.28,0.15,0.49,0.17,0.65c0.02,0.16-0.01,0.28-0.09,0.36c-0.08,0.08-0.23,0.13-0.45,0.15
				c-0.21,0.02-0.51,0.03-0.88,0.03c-0.39,0-0.69,0-0.91-0.02s-0.38-0.03-0.5-0.07c-0.11-0.03-0.2-0.08-0.24-0.14
				c-0.05-0.06-0.08-0.14-0.11-0.24l-1-2.98h-5.57l-0.94,2.9c-0.03,0.11-0.07,0.2-0.12,0.27c-0.05,0.07-0.13,0.13-0.24,0.17
				c-0.11,0.04-0.27,0.07-0.47,0.09s-0.47,0.02-0.8,0.02c-0.35,0-0.63-0.01-0.83-0.03c-0.2-0.02-0.34-0.08-0.41-0.17
				c-0.08-0.09-0.1-0.21-0.08-0.37c0.02-0.16,0.08-0.37,0.17-0.64l4.58-13.17c0.05-0.13,0.1-0.23,0.16-0.32
				c0.06-0.08,0.16-0.14,0.29-0.18s0.32-0.07,0.56-0.08c0.24-0.01,0.55-0.02,0.94-0.02c0.45,0,0.81,0.01,1.08,0.02
				c0.27,0.01,0.48,0.04,0.62,0.08s0.26,0.1,0.32,0.19c0.06,0.08,0.12,0.2,0.17,0.34L30.4,178.36z M23.58,167.47h-0.01l-2.1,6.31
				h4.21L23.58,167.47z"/>
			<path class="st0" d="M42.5,175.03c0,0.53-0.07,1.01-0.22,1.43c-0.15,0.43-0.35,0.81-0.6,1.14c-0.26,0.33-0.56,0.61-0.92,0.85
				s-0.75,0.43-1.18,0.58s-0.88,0.27-1.37,0.34c-0.49,0.07-1.03,0.11-1.62,0.11h-3.95c-0.25,0-0.46-0.07-0.64-0.22
				s-0.26-0.39-0.26-0.73v-12.94c0-0.34,0.09-0.58,0.26-0.73c0.17-0.15,0.38-0.22,0.64-0.22h3.73c0.91,0,1.68,0.08,2.31,0.23
				c0.63,0.15,1.16,0.38,1.59,0.69c0.43,0.31,0.76,0.7,0.99,1.17c0.23,0.47,0.34,1.03,0.34,1.67c0,0.36-0.05,0.7-0.14,1.01
				c-0.09,0.32-0.23,0.61-0.4,0.87s-0.39,0.49-0.65,0.69c-0.26,0.2-0.55,0.36-0.88,0.48c0.42,0.08,0.81,0.21,1.16,0.4
				s0.67,0.44,0.93,0.74c0.26,0.3,0.47,0.66,0.62,1.06S42.5,174.53,42.5,175.03z M38.6,168.78c0-0.3-0.05-0.57-0.14-0.8
				s-0.23-0.43-0.41-0.59s-0.41-0.28-0.69-0.36s-0.65-0.13-1.12-0.13h-1.53v3.85h1.69c0.44,0,0.78-0.05,1.04-0.16
				c0.26-0.1,0.48-0.24,0.65-0.42c0.17-0.18,0.3-0.39,0.38-0.63C38.55,169.3,38.6,169.05,38.6,168.78z M39.36,175.13
				c0-0.34-0.06-0.65-0.17-0.92c-0.12-0.27-0.28-0.5-0.5-0.68s-0.5-0.33-0.85-0.42c-0.34-0.1-0.79-0.15-1.34-0.15h-1.79v4.22h2.18
				c0.42,0,0.77-0.04,1.06-0.13c0.29-0.09,0.53-0.22,0.75-0.39c0.21-0.17,0.37-0.39,0.49-0.64
				C39.31,175.76,39.36,175.46,39.36,175.13z"/>
			<path class="st0" d="M54.44,168.35c0,0.17-0.01,0.31-0.02,0.41c-0.01,0.1-0.03,0.18-0.05,0.24s-0.05,0.09-0.08,0.11
				c-0.03,0.02-0.06,0.03-0.1,0.03c-0.04,0-0.09-0.01-0.14-0.03c-0.05-0.02-0.11-0.04-0.18-0.07c-0.07-0.02-0.16-0.04-0.26-0.07
				s-0.22-0.03-0.35-0.03c-0.16,0-0.29,0.03-0.41,0.07c-0.12,0.05-0.21,0.13-0.29,0.24s-0.13,0.25-0.17,0.42s-0.05,0.38-0.05,0.64
				v0.72h1.43c0.05,0,0.1,0.01,0.15,0.04c0.04,0.03,0.08,0.08,0.11,0.15s0.05,0.16,0.07,0.28c0.01,0.12,0.02,0.26,0.02,0.43
				c0,0.32-0.03,0.55-0.09,0.69c-0.06,0.14-0.14,0.21-0.25,0.21h-1.43v6.35c0,0.06-0.02,0.11-0.05,0.15
				c-0.04,0.04-0.09,0.08-0.18,0.11s-0.2,0.05-0.34,0.07c-0.15,0.01-0.33,0.02-0.54,0.02s-0.39-0.01-0.53-0.02
				c-0.14-0.02-0.26-0.04-0.34-0.07s-0.14-0.07-0.18-0.11c-0.03-0.04-0.05-0.1-0.05-0.15v-6.35h-0.98c-0.11,0-0.2-0.07-0.25-0.21
				c-0.06-0.14-0.08-0.37-0.08-0.69c0-0.17,0.01-0.31,0.02-0.43c0.01-0.12,0.04-0.21,0.06-0.28c0.03-0.07,0.06-0.12,0.11-0.15
				c0.04-0.03,0.1-0.04,0.15-0.04h0.98v-0.66c0-0.53,0.05-1,0.16-1.4s0.27-0.74,0.5-1c0.22-0.27,0.51-0.47,0.86-0.6
				c0.35-0.13,0.76-0.2,1.23-0.2c0.23,0,0.45,0.02,0.65,0.06c0.21,0.04,0.37,0.08,0.48,0.12c0.12,0.04,0.2,0.09,0.24,0.12
				c0.04,0.04,0.07,0.09,0.1,0.17c0.03,0.07,0.04,0.17,0.06,0.28C54.44,168.04,54.44,168.18,54.44,168.35z"/>
			<path class="st0" d="M63.07,175.18c0,0.67-0.09,1.28-0.26,1.83s-0.44,1.03-0.8,1.42s-0.81,0.71-1.34,0.92s-1.17,0.33-1.89,0.33
				c-0.7,0-1.3-0.1-1.82-0.29s-0.94-0.47-1.28-0.84s-0.59-0.82-0.76-1.36s-0.25-1.15-0.25-1.85c0-0.67,0.09-1.28,0.27-1.83
				c0.18-0.55,0.45-1.03,0.8-1.42c0.36-0.39,0.8-0.7,1.34-0.92c0.54-0.22,1.17-0.33,1.89-0.33c0.7,0,1.31,0.1,1.83,0.29
				s0.94,0.47,1.28,0.84s0.59,0.82,0.75,1.36S63.07,174.49,63.07,175.18z M60.79,175.27c0-0.39-0.03-0.74-0.09-1.07
				c-0.06-0.33-0.17-0.61-0.31-0.85s-0.34-0.43-0.58-0.56s-0.55-0.2-0.92-0.2c-0.33,0-0.62,0.06-0.86,0.18
				c-0.25,0.12-0.45,0.3-0.61,0.53c-0.16,0.23-0.28,0.51-0.36,0.84c-0.08,0.32-0.12,0.7-0.12,1.11c0,0.39,0.03,0.74,0.1,1.07
				c0.06,0.32,0.17,0.61,0.31,0.85c0.14,0.24,0.34,0.43,0.58,0.56c0.25,0.13,0.55,0.2,0.91,0.2c0.33,0,0.62-0.06,0.87-0.18
				s0.45-0.29,0.61-0.52s0.28-0.51,0.35-0.83C60.75,176.06,60.79,175.69,60.79,175.27z"/>
			<path class="st0" d="M69.85,172.07c0,0.21-0.01,0.38-0.02,0.52s-0.03,0.24-0.05,0.32s-0.05,0.13-0.09,0.16s-0.09,0.04-0.14,0.04
				c-0.05,0-0.1-0.01-0.16-0.03s-0.12-0.04-0.2-0.07c-0.07-0.02-0.15-0.04-0.24-0.07c-0.09-0.02-0.18-0.03-0.29-0.03
				c-0.12,0-0.25,0.03-0.37,0.08s-0.25,0.13-0.38,0.23c-0.13,0.11-0.27,0.25-0.41,0.42s-0.3,0.39-0.46,0.65v4.89
				c0,0.06-0.02,0.11-0.05,0.15c-0.04,0.04-0.1,0.08-0.18,0.11c-0.09,0.03-0.2,0.05-0.34,0.07c-0.14,0.01-0.32,0.02-0.54,0.02
				s-0.4-0.01-0.54-0.02c-0.14-0.02-0.25-0.04-0.34-0.07s-0.14-0.07-0.18-0.11c-0.04-0.04-0.05-0.1-0.05-0.15v-7.84
				c0-0.06,0.01-0.11,0.04-0.15c0.03-0.04,0.08-0.08,0.16-0.11s0.17-0.05,0.29-0.07c0.12-0.01,0.27-0.02,0.45-0.02
				c0.19,0,0.34,0.01,0.47,0.02c0.12,0.02,0.22,0.04,0.29,0.07c0.07,0.03,0.12,0.07,0.14,0.11c0.03,0.04,0.04,0.1,0.04,0.15v0.98
				c0.21-0.29,0.4-0.53,0.58-0.73c0.18-0.19,0.35-0.34,0.52-0.45s0.33-0.19,0.49-0.23c0.16-0.04,0.33-0.07,0.49-0.07
				c0.08,0,0.16,0,0.25,0.01c0.09,0.01,0.18,0.02,0.27,0.04s0.18,0.04,0.25,0.07c0.07,0.03,0.12,0.05,0.15,0.08s0.06,0.06,0.07,0.1
				s0.03,0.08,0.04,0.14c0.01,0.06,0.02,0.15,0.03,0.28S69.85,171.86,69.85,172.07z"/>
		</g>
		<g>
			<path class="st0" d="M19.74,199.36c0.09,0.28,0.15,0.49,0.17,0.65c0.02,0.16-0.01,0.28-0.09,0.36c-0.08,0.08-0.23,0.13-0.45,0.15
				c-0.21,0.02-0.51,0.03-0.88,0.03c-0.39,0-0.69,0-0.91-0.02s-0.38-0.03-0.5-0.07c-0.11-0.03-0.2-0.08-0.24-0.14
				c-0.05-0.06-0.08-0.14-0.11-0.24l-1-2.98h-5.57L9.21,200c-0.03,0.11-0.07,0.2-0.12,0.27c-0.05,0.07-0.13,0.13-0.24,0.17
				c-0.11,0.04-0.27,0.07-0.47,0.09s-0.47,0.02-0.8,0.02c-0.35,0-0.63-0.01-0.83-0.03c-0.2-0.02-0.34-0.08-0.41-0.17
				c-0.08-0.09-0.1-0.21-0.08-0.37c0.02-0.16,0.08-0.37,0.17-0.64l4.58-13.17c0.05-0.13,0.1-0.23,0.16-0.32
				c0.06-0.08,0.16-0.14,0.29-0.18s0.32-0.07,0.56-0.08c0.24-0.01,0.55-0.02,0.94-0.02c0.45,0,0.81,0.01,1.08,0.02
				c0.27,0.01,0.48,0.04,0.62,0.08s0.26,0.1,0.32,0.19c0.06,0.08,0.12,0.2,0.17,0.34L19.74,199.36z M12.93,188.47h-0.01l-2.1,6.31
				h4.21L12.93,188.47z"/>
			<path class="st0" d="M24.84,200.07c0,0.08-0.02,0.15-0.07,0.21c-0.05,0.06-0.13,0.11-0.25,0.15c-0.12,0.04-0.27,0.07-0.46,0.09
				c-0.19,0.02-0.44,0.03-0.73,0.03c-0.29,0-0.53-0.01-0.73-0.03c-0.19-0.02-0.35-0.05-0.46-0.09c-0.12-0.04-0.2-0.09-0.25-0.15
				c-0.05-0.06-0.07-0.13-0.07-0.21v-14.01c0-0.08,0.02-0.15,0.07-0.21c0.05-0.06,0.13-0.11,0.25-0.15
				c0.12-0.04,0.27-0.07,0.46-0.09c0.19-0.02,0.43-0.03,0.72-0.03c0.3,0,0.54,0.01,0.73,0.03c0.19,0.02,0.34,0.05,0.46,0.09
				c0.11,0.04,0.2,0.09,0.25,0.15c0.05,0.06,0.07,0.13,0.07,0.21V200.07z"/>
			<path class="st0" d="M32.98,194.71c0,0.44-0.04,0.75-0.13,0.93s-0.22,0.26-0.4,0.26h-4.77c-0.19,0-0.33-0.09-0.41-0.27
				s-0.13-0.49-0.13-0.92c0-0.43,0.04-0.73,0.13-0.91s0.22-0.26,0.41-0.26h4.77c0.09,0,0.17,0.02,0.24,0.06
				c0.07,0.04,0.12,0.1,0.17,0.19s0.08,0.21,0.1,0.37C32.97,194.32,32.98,194.5,32.98,194.71z"/>
			<path class="st0" d="M45.43,190.15c0,0.83-0.13,1.57-0.39,2.21c-0.26,0.64-0.64,1.18-1.14,1.62s-1.11,0.77-1.83,1
				c-0.72,0.23-1.57,0.34-2.55,0.34h-1.24v4.74c0,0.08-0.03,0.15-0.08,0.21c-0.05,0.06-0.13,0.11-0.25,0.15
				c-0.12,0.04-0.27,0.07-0.46,0.09c-0.19,0.02-0.44,0.03-0.73,0.03c-0.29,0-0.53-0.01-0.73-0.03c-0.2-0.02-0.35-0.05-0.46-0.09
				c-0.11-0.04-0.2-0.09-0.24-0.15c-0.05-0.06-0.07-0.13-0.07-0.21v-13.35c0-0.36,0.09-0.63,0.28-0.81
				c0.19-0.18,0.43-0.27,0.74-0.27h3.5c0.35,0,0.69,0.01,1,0.04c0.32,0.03,0.7,0.08,1.14,0.17c0.44,0.09,0.89,0.25,1.35,0.49
				c0.46,0.24,0.84,0.54,1.16,0.9c0.32,0.36,0.57,0.79,0.73,1.27C45.35,189,45.43,189.54,45.43,190.15z M42.28,190.37
				c0-0.52-0.09-0.95-0.28-1.29c-0.18-0.34-0.41-0.58-0.68-0.75s-0.55-0.26-0.84-0.3c-0.29-0.04-0.6-0.06-0.91-0.06h-1.28V193h1.35
				c0.48,0,0.89-0.07,1.21-0.2c0.33-0.13,0.59-0.31,0.8-0.54c0.21-0.23,0.36-0.51,0.47-0.84S42.28,190.75,42.28,190.37z"/>
			<path class="st0" d="M61.12,192.89c0,1.23-0.15,2.33-0.46,3.3s-0.76,1.79-1.36,2.47c-0.6,0.68-1.35,1.19-2.24,1.55
				s-1.92,0.53-3.09,0.53c-1.16,0-2.16-0.15-3.02-0.45s-1.58-0.76-2.15-1.38s-1-1.41-1.29-2.36s-0.43-2.09-0.43-3.39
				c0-1.2,0.15-2.28,0.46-3.24s0.76-1.78,1.37-2.45c0.6-0.67,1.35-1.19,2.24-1.55s1.92-0.54,3.1-0.54c1.12,0,2.12,0.15,2.98,0.45
				s1.58,0.76,2.16,1.38c0.58,0.62,1.01,1.4,1.31,2.35C60.97,190.49,61.12,191.6,61.12,192.89z M57.96,193.05
				c0-0.78-0.06-1.49-0.18-2.13c-0.12-0.64-0.33-1.18-0.62-1.64c-0.29-0.46-0.69-0.81-1.18-1.06c-0.49-0.25-1.1-0.37-1.83-0.37
				c-0.74,0-1.36,0.14-1.86,0.42c-0.5,0.28-0.9,0.65-1.2,1.12c-0.31,0.47-0.52,1.01-0.65,1.63c-0.13,0.62-0.19,1.28-0.19,1.98
				c0,0.81,0.06,1.54,0.18,2.18c0.12,0.65,0.33,1.2,0.62,1.66c0.29,0.46,0.68,0.81,1.17,1.05c0.49,0.24,1.1,0.36,1.85,0.36
				c0.74,0,1.36-0.14,1.86-0.41s0.9-0.65,1.2-1.12s0.52-1.03,0.65-1.66S57.96,193.76,57.96,193.05z"/>
			<path class="st0" d="M78.99,199.71c-0.05,0.18-0.11,0.33-0.19,0.44c-0.08,0.11-0.2,0.2-0.36,0.25c-0.16,0.06-0.37,0.09-0.62,0.11
				c-0.25,0.02-0.57,0.03-0.96,0.03c-0.44,0-0.79-0.01-1.05-0.03s-0.47-0.06-0.62-0.11c-0.15-0.06-0.26-0.14-0.33-0.25
				c-0.07-0.11-0.12-0.26-0.16-0.44l-2.37-9.4h-0.02l-2.25,9.4c-0.04,0.18-0.09,0.32-0.16,0.43c-0.07,0.11-0.18,0.2-0.33,0.26
				c-0.15,0.06-0.35,0.1-0.61,0.12c-0.26,0.02-0.59,0.03-1.01,0.03c-0.44,0-0.8-0.01-1.06-0.03s-0.47-0.06-0.62-0.11
				c-0.15-0.06-0.26-0.14-0.33-0.25c-0.07-0.11-0.13-0.26-0.17-0.44l-3.37-12.95c-0.07-0.28-0.11-0.49-0.11-0.65
				c-0.01-0.16,0.04-0.28,0.13-0.36s0.25-0.14,0.47-0.16c0.22-0.02,0.52-0.03,0.91-0.03c0.36,0,0.64,0.01,0.85,0.02
				c0.21,0.01,0.37,0.04,0.48,0.08c0.11,0.04,0.18,0.1,0.22,0.18c0.04,0.08,0.07,0.19,0.09,0.34l2.6,11.37h0.01l2.71-11.29
				c0.03-0.14,0.07-0.26,0.12-0.36s0.13-0.16,0.25-0.21c0.12-0.05,0.28-0.08,0.49-0.1c0.21-0.02,0.48-0.03,0.83-0.03
				c0.37,0,0.66,0.01,0.88,0.02c0.22,0.02,0.39,0.05,0.5,0.1s0.2,0.12,0.26,0.21s0.1,0.21,0.13,0.37l2.8,11.29h0.02l2.6-11.33
				c0.02-0.12,0.05-0.23,0.09-0.32s0.11-0.16,0.22-0.21c0.11-0.05,0.26-0.08,0.46-0.1c0.2-0.02,0.48-0.03,0.84-0.03
				c0.34,0,0.6,0.01,0.79,0.03c0.19,0.02,0.32,0.07,0.41,0.16s0.12,0.21,0.11,0.37c-0.01,0.17-0.05,0.39-0.12,0.67L78.99,199.71z"/>
			<path class="st0" d="M93.45,199.3c0,0.22-0.01,0.41-0.03,0.56c-0.02,0.15-0.05,0.27-0.09,0.36s-0.09,0.16-0.14,0.2
				c-0.06,0.04-0.12,0.06-0.19,0.06h-7.46c-0.25,0-0.46-0.07-0.64-0.22s-0.26-0.39-0.26-0.73v-12.94c0-0.34,0.09-0.58,0.26-0.73
				c0.17-0.15,0.38-0.22,0.64-0.22h7.41c0.07,0,0.13,0.02,0.18,0.06c0.05,0.04,0.1,0.11,0.14,0.2c0.04,0.1,0.07,0.22,0.09,0.37
				c0.02,0.15,0.03,0.34,0.03,0.57c0,0.21-0.01,0.4-0.03,0.54c-0.02,0.15-0.05,0.27-0.09,0.36c-0.04,0.09-0.08,0.16-0.14,0.2
				c-0.05,0.04-0.11,0.06-0.18,0.06h-5.3v3.62h4.48c0.07,0,0.13,0.02,0.19,0.06c0.06,0.04,0.1,0.11,0.14,0.2s0.07,0.21,0.09,0.36
				c0.02,0.15,0.03,0.33,0.03,0.54c0,0.22-0.01,0.41-0.03,0.55c-0.02,0.15-0.05,0.26-0.09,0.35s-0.09,0.15-0.14,0.19
				c-0.06,0.04-0.12,0.06-0.19,0.06h-4.48v4.19H93c0.07,0,0.13,0.02,0.19,0.06c0.06,0.04,0.11,0.11,0.14,0.2s0.07,0.21,0.09,0.36
				C93.44,198.89,93.45,199.08,93.45,199.3z"/>
			<path class="st0" d="M107.12,200.09c0,0.08-0.02,0.15-0.05,0.21s-0.1,0.11-0.22,0.14c-0.11,0.04-0.28,0.06-0.5,0.08
				s-0.52,0.02-0.91,0.02c-0.32,0-0.58-0.01-0.77-0.02c-0.19-0.02-0.34-0.04-0.45-0.09c-0.11-0.04-0.19-0.1-0.24-0.16
				c-0.05-0.06-0.08-0.14-0.11-0.23l-1.33-3.31c-0.16-0.38-0.32-0.71-0.47-1c-0.15-0.29-0.32-0.53-0.51-0.73
				c-0.19-0.19-0.4-0.34-0.65-0.44c-0.25-0.1-0.53-0.15-0.85-0.15h-0.94v5.65c0,0.08-0.03,0.15-0.08,0.21
				c-0.05,0.06-0.13,0.11-0.25,0.15c-0.12,0.04-0.27,0.07-0.46,0.09c-0.19,0.02-0.44,0.03-0.73,0.03c-0.29,0-0.53-0.01-0.73-0.03
				c-0.2-0.02-0.35-0.05-0.46-0.09c-0.11-0.04-0.2-0.09-0.24-0.15c-0.05-0.06-0.07-0.13-0.07-0.21v-13.48
				c0-0.34,0.09-0.58,0.26-0.73c0.17-0.15,0.38-0.22,0.64-0.22h3.84c0.39,0,0.71,0.01,0.96,0.02c0.25,0.01,0.48,0.03,0.69,0.06
				c0.6,0.08,1.13,0.23,1.61,0.44c0.48,0.21,0.88,0.48,1.22,0.81c0.33,0.33,0.59,0.73,0.76,1.18c0.18,0.46,0.26,0.98,0.26,1.57
				c0,0.5-0.06,0.95-0.19,1.36c-0.13,0.41-0.31,0.77-0.56,1.1c-0.25,0.32-0.55,0.6-0.91,0.84s-0.77,0.43-1.23,0.57
				c0.22,0.11,0.43,0.24,0.62,0.39c0.19,0.15,0.38,0.34,0.55,0.56c0.17,0.22,0.33,0.47,0.49,0.75c0.15,0.28,0.3,0.59,0.45,0.95
				l1.25,2.92c0.11,0.29,0.19,0.5,0.23,0.64C107.1,199.91,107.12,200.02,107.12,200.09z M103.23,190.02c0-0.49-0.11-0.9-0.33-1.24
				c-0.22-0.34-0.58-0.57-1.09-0.71c-0.15-0.04-0.33-0.07-0.52-0.09c-0.19-0.02-0.46-0.03-0.81-0.03h-1.35v4.21h1.54
				c0.43,0,0.8-0.05,1.12-0.16c0.32-0.1,0.59-0.25,0.8-0.44s0.38-0.41,0.48-0.67C103.18,190.63,103.23,190.34,103.23,190.02z"/>
			<path class="st0" d="M118.13,199.3c0,0.22-0.01,0.41-0.03,0.56c-0.02,0.15-0.05,0.27-0.09,0.36s-0.09,0.16-0.14,0.2
				c-0.06,0.04-0.12,0.06-0.19,0.06h-7.46c-0.25,0-0.46-0.07-0.64-0.22s-0.26-0.39-0.26-0.73v-12.94c0-0.34,0.09-0.58,0.26-0.73
				c0.17-0.15,0.38-0.22,0.64-0.22h7.41c0.07,0,0.13,0.02,0.18,0.06c0.05,0.04,0.1,0.11,0.14,0.2c0.04,0.1,0.07,0.22,0.09,0.37
				c0.02,0.15,0.03,0.34,0.03,0.57c0,0.21-0.01,0.4-0.03,0.54c-0.02,0.15-0.05,0.27-0.09,0.36c-0.04,0.09-0.08,0.16-0.14,0.2
				c-0.05,0.04-0.11,0.06-0.18,0.06h-5.3v3.62h4.48c0.07,0,0.13,0.02,0.19,0.06c0.06,0.04,0.1,0.11,0.14,0.2s0.07,0.21,0.09,0.36
				c0.02,0.15,0.03,0.33,0.03,0.54c0,0.22-0.01,0.41-0.03,0.55c-0.02,0.15-0.05,0.26-0.09,0.35s-0.09,0.15-0.14,0.19
				c-0.06,0.04-0.12,0.06-0.19,0.06h-4.48v4.19h5.34c0.07,0,0.13,0.02,0.19,0.06c0.06,0.04,0.11,0.11,0.14,0.2s0.07,0.21,0.09,0.36
				C118.12,198.89,118.13,199.08,118.13,199.3z"/>
			<path class="st0" d="M133.12,192.84c0,1.36-0.18,2.53-0.53,3.49c-0.36,0.97-0.87,1.76-1.53,2.37c-0.67,0.61-1.47,1.06-2.43,1.35
				c-0.95,0.29-2.09,0.43-3.4,0.43h-3.54c-0.25,0-0.46-0.07-0.64-0.22s-0.26-0.39-0.26-0.73v-12.94c0-0.34,0.09-0.58,0.26-0.73
				c0.17-0.15,0.38-0.22,0.64-0.22h3.81c1.32,0,2.44,0.16,3.37,0.46c0.92,0.31,1.7,0.77,2.33,1.38c0.63,0.61,1.11,1.36,1.44,2.25
				C132.96,190.63,133.12,191.67,133.12,192.84z M130,192.95c0-0.7-0.08-1.36-0.25-1.96c-0.17-0.6-0.43-1.13-0.79-1.57
				c-0.36-0.44-0.83-0.79-1.4-1.04c-0.57-0.25-1.32-0.37-2.24-0.37h-1.53v10.09h1.57c0.83,0,1.52-0.11,2.09-0.32
				c0.57-0.21,1.04-0.54,1.42-0.97c0.38-0.43,0.66-0.97,0.85-1.61C129.91,194.55,130,193.8,130,192.95z"/>
			<path class="st0" d="M149.23,186.88c0,0.23-0.01,0.42-0.03,0.58c-0.02,0.16-0.05,0.28-0.09,0.37s-0.09,0.16-0.14,0.21
				s-0.11,0.07-0.18,0.07h-4.85v3.99h4.55c0.07,0,0.13,0.02,0.18,0.06c0.05,0.04,0.1,0.1,0.14,0.19c0.04,0.09,0.07,0.21,0.09,0.37
				c0.02,0.15,0.03,0.34,0.03,0.57c0,0.23-0.01,0.42-0.03,0.57c-0.02,0.15-0.05,0.28-0.09,0.38c-0.04,0.1-0.09,0.17-0.14,0.21
				c-0.05,0.04-0.12,0.06-0.18,0.06h-4.55v5.53c0,0.08-0.02,0.16-0.07,0.22s-0.13,0.11-0.25,0.15c-0.12,0.04-0.27,0.08-0.46,0.1
				c-0.19,0.02-0.44,0.03-0.73,0.03c-0.29,0-0.53-0.01-0.73-0.03c-0.19-0.02-0.35-0.05-0.46-0.1c-0.12-0.04-0.2-0.09-0.25-0.15
				s-0.07-0.13-0.07-0.22v-13.45c0-0.34,0.09-0.58,0.26-0.73c0.17-0.15,0.38-0.22,0.64-0.22h6.98c0.07,0,0.13,0.02,0.18,0.06
				s0.1,0.11,0.14,0.21s0.07,0.22,0.09,0.38C149.23,186.46,149.23,186.65,149.23,186.88z"/>
			<path class="st0" d="M154.72,200.07c0,0.08-0.02,0.15-0.07,0.21c-0.05,0.06-0.13,0.11-0.25,0.15c-0.12,0.04-0.27,0.07-0.46,0.09
				c-0.19,0.02-0.44,0.03-0.73,0.03c-0.29,0-0.53-0.01-0.73-0.03c-0.19-0.02-0.35-0.05-0.46-0.09c-0.12-0.04-0.2-0.09-0.25-0.15
				c-0.05-0.06-0.07-0.13-0.07-0.21v-14.01c0-0.08,0.02-0.15,0.07-0.21c0.05-0.06,0.13-0.11,0.25-0.15
				c0.12-0.04,0.27-0.07,0.46-0.09c0.19-0.02,0.43-0.03,0.72-0.03c0.3,0,0.54,0.01,0.73,0.03c0.19,0.02,0.34,0.05,0.46,0.09
				c0.11,0.04,0.2,0.09,0.25,0.15c0.05,0.06,0.07,0.13,0.07,0.21V200.07z"/>
			<path class="st0" d="M170.19,199.43c0,0.18-0.03,0.33-0.09,0.47c-0.06,0.14-0.14,0.25-0.25,0.34c-0.1,0.09-0.23,0.16-0.37,0.2
				c-0.14,0.04-0.29,0.06-0.43,0.06h-1.28c-0.27,0-0.5-0.03-0.69-0.08c-0.19-0.05-0.37-0.15-0.54-0.29
				c-0.16-0.14-0.32-0.33-0.48-0.57c-0.15-0.24-0.33-0.55-0.52-0.94l-3.69-6.94c-0.21-0.41-0.43-0.86-0.65-1.34
				c-0.22-0.48-0.42-0.94-0.6-1.39h-0.02c0.03,0.55,0.05,1.1,0.07,1.65c0.01,0.55,0.02,1.11,0.02,1.69v7.76
				c0,0.08-0.02,0.15-0.06,0.21s-0.12,0.11-0.22,0.15c-0.1,0.04-0.24,0.08-0.42,0.1c-0.18,0.02-0.4,0.03-0.68,0.03
				c-0.27,0-0.49-0.01-0.67-0.03c-0.18-0.02-0.31-0.05-0.41-0.1c-0.1-0.04-0.17-0.09-0.21-0.15c-0.04-0.06-0.06-0.13-0.06-0.21
				v-13.34c0-0.36,0.1-0.63,0.32-0.81c0.21-0.18,0.47-0.27,0.77-0.27h1.62c0.29,0,0.53,0.03,0.73,0.08s0.38,0.13,0.53,0.25
				c0.16,0.11,0.3,0.27,0.44,0.48c0.14,0.2,0.28,0.45,0.42,0.75l2.89,5.42c0.17,0.33,0.33,0.65,0.5,0.97
				c0.17,0.32,0.32,0.63,0.48,0.95c0.15,0.32,0.3,0.63,0.45,0.93c0.14,0.31,0.29,0.61,0.42,0.92h0.01
				c-0.02-0.54-0.04-1.09-0.05-1.67s-0.02-1.14-0.02-1.66v-6.96c0-0.08,0.02-0.14,0.07-0.21s0.12-0.12,0.23-0.16
				c0.11-0.05,0.25-0.08,0.42-0.1c0.18-0.02,0.4-0.03,0.68-0.03c0.26,0,0.48,0.01,0.65,0.03c0.18,0.02,0.31,0.05,0.41,0.1
				c0.09,0.05,0.16,0.1,0.2,0.16s0.06,0.13,0.06,0.21V199.43z"/>
			<path class="st0" d="M183.3,186.88c0,0.22-0.01,0.41-0.03,0.57c-0.02,0.16-0.05,0.28-0.09,0.38c-0.04,0.1-0.09,0.17-0.14,0.21
				c-0.06,0.05-0.12,0.07-0.19,0.07h-3.72v11.96c0,0.08-0.02,0.15-0.07,0.21c-0.05,0.06-0.13,0.11-0.25,0.15
				c-0.12,0.04-0.27,0.07-0.46,0.09c-0.2,0.02-0.44,0.03-0.73,0.03c-0.29,0-0.53-0.01-0.73-0.03c-0.19-0.02-0.35-0.05-0.46-0.09
				c-0.12-0.04-0.2-0.09-0.25-0.15c-0.05-0.06-0.07-0.13-0.07-0.21v-11.96h-3.72c-0.08,0-0.14-0.02-0.2-0.07s-0.1-0.12-0.14-0.21
				c-0.04-0.09-0.07-0.22-0.09-0.38c-0.02-0.16-0.03-0.35-0.03-0.57c0-0.23,0.01-0.42,0.03-0.58c0.02-0.16,0.05-0.29,0.09-0.38
				s0.08-0.16,0.14-0.21s0.12-0.06,0.2-0.06h10.46c0.07,0,0.13,0.02,0.19,0.06c0.06,0.04,0.11,0.11,0.14,0.21s0.07,0.22,0.09,0.38
				C183.29,186.46,183.3,186.65,183.3,186.88z"/>
			<path class="st0" d="M193.85,199.3c0,0.22-0.01,0.41-0.03,0.56c-0.02,0.15-0.05,0.27-0.09,0.36s-0.09,0.16-0.14,0.2
				c-0.06,0.04-0.12,0.06-0.19,0.06h-7.46c-0.25,0-0.46-0.07-0.64-0.22s-0.26-0.39-0.26-0.73v-12.94c0-0.34,0.09-0.58,0.26-0.73
				c0.17-0.15,0.38-0.22,0.64-0.22h7.41c0.07,0,0.13,0.02,0.18,0.06c0.05,0.04,0.1,0.11,0.14,0.2c0.04,0.1,0.07,0.22,0.09,0.37
				c0.02,0.15,0.03,0.34,0.03,0.57c0,0.21-0.01,0.4-0.03,0.54c-0.02,0.15-0.05,0.27-0.09,0.36c-0.04,0.09-0.08,0.16-0.14,0.2
				c-0.05,0.04-0.11,0.06-0.18,0.06h-5.3v3.62h4.48c0.07,0,0.13,0.02,0.19,0.06c0.06,0.04,0.1,0.11,0.14,0.2s0.07,0.21,0.09,0.36
				c0.02,0.15,0.03,0.33,0.03,0.54c0,0.22-0.01,0.41-0.03,0.55c-0.02,0.15-0.05,0.26-0.09,0.35s-0.09,0.15-0.14,0.19
				c-0.06,0.04-0.12,0.06-0.19,0.06h-4.48v4.19h5.34c0.07,0,0.13,0.02,0.19,0.06c0.06,0.04,0.11,0.11,0.14,0.2s0.07,0.21,0.09,0.36
				C193.84,198.89,193.85,199.08,193.85,199.3z"/>
			<path class="st0" d="M206.43,198.23c0,0.19-0.01,0.35-0.02,0.49s-0.03,0.25-0.05,0.34c-0.02,0.1-0.05,0.18-0.09,0.25
				c-0.04,0.07-0.1,0.15-0.18,0.24c-0.08,0.09-0.25,0.2-0.49,0.34c-0.24,0.14-0.54,0.27-0.88,0.4c-0.35,0.13-0.75,0.23-1.19,0.32
				c-0.45,0.08-0.93,0.13-1.45,0.13c-1.02,0-1.93-0.16-2.75-0.47c-0.82-0.31-1.51-0.78-2.09-1.41c-0.57-0.62-1.01-1.4-1.32-2.33
				c-0.31-0.93-0.46-2.02-0.46-3.26c0-1.26,0.17-2.38,0.5-3.36c0.34-0.98,0.81-1.8,1.41-2.47c0.6-0.67,1.33-1.17,2.17-1.51
				c0.84-0.34,1.78-0.52,2.79-0.52c0.41,0,0.81,0.03,1.19,0.1c0.38,0.07,0.74,0.16,1.06,0.27c0.33,0.11,0.62,0.24,0.88,0.38
				s0.44,0.27,0.54,0.37c0.1,0.1,0.17,0.19,0.21,0.26c0.04,0.07,0.07,0.16,0.09,0.26c0.02,0.11,0.04,0.23,0.05,0.38
				c0.01,0.15,0.02,0.33,0.02,0.54c0,0.23-0.01,0.42-0.02,0.58c-0.01,0.16-0.04,0.29-0.08,0.39c-0.04,0.1-0.08,0.17-0.14,0.22
				s-0.11,0.07-0.18,0.07c-0.11,0-0.26-0.07-0.44-0.2s-0.4-0.28-0.68-0.45c-0.28-0.17-0.61-0.31-1-0.45
				c-0.39-0.13-0.85-0.2-1.38-0.2c-0.59,0-1.11,0.12-1.58,0.36c-0.46,0.24-0.86,0.58-1.18,1.03s-0.57,0.99-0.74,1.62
				c-0.17,0.63-0.25,1.35-0.25,2.14c0,0.87,0.09,1.63,0.27,2.26c0.18,0.64,0.44,1.16,0.77,1.58c0.33,0.41,0.73,0.72,1.2,0.92
				c0.47,0.2,1,0.3,1.59,0.3c0.54,0,1-0.06,1.39-0.19c0.39-0.13,0.72-0.27,1-0.42c0.28-0.15,0.51-0.29,0.69-0.41
				c0.18-0.12,0.32-0.18,0.42-0.18c0.08,0,0.14,0.01,0.18,0.05c0.05,0.03,0.08,0.09,0.12,0.18c0.03,0.09,0.05,0.22,0.07,0.38
				C206.42,197.74,206.43,197.96,206.43,198.23z"/>
			<path class="st0" d="M220.18,200.07c0,0.08-0.02,0.15-0.07,0.21c-0.05,0.06-0.13,0.11-0.25,0.15c-0.12,0.04-0.27,0.07-0.46,0.09
				c-0.19,0.02-0.43,0.03-0.72,0.03c-0.3,0-0.54-0.01-0.74-0.03c-0.19-0.02-0.35-0.05-0.46-0.09c-0.11-0.04-0.19-0.09-0.24-0.15
				c-0.05-0.06-0.07-0.13-0.07-0.21v-6h-5.55v6c0,0.08-0.02,0.15-0.07,0.21c-0.05,0.06-0.13,0.11-0.24,0.15
				c-0.12,0.04-0.27,0.07-0.46,0.09c-0.19,0.02-0.44,0.03-0.73,0.03c-0.29,0-0.53-0.01-0.73-0.03c-0.19-0.02-0.35-0.05-0.46-0.09
				c-0.12-0.04-0.2-0.09-0.25-0.15c-0.05-0.06-0.07-0.13-0.07-0.21v-14.01c0-0.08,0.02-0.15,0.07-0.21
				c0.05-0.06,0.13-0.11,0.25-0.15c0.11-0.04,0.27-0.07,0.46-0.09c0.2-0.02,0.44-0.03,0.73-0.03c0.3,0,0.54,0.01,0.73,0.03
				c0.19,0.02,0.34,0.05,0.46,0.09c0.11,0.04,0.19,0.09,0.24,0.15c0.05,0.06,0.07,0.13,0.07,0.21v5.45h5.55v-5.45
				c0-0.08,0.02-0.15,0.07-0.21c0.05-0.06,0.13-0.11,0.24-0.15c0.11-0.04,0.26-0.07,0.46-0.09c0.2-0.02,0.44-0.03,0.74-0.03
				c0.29,0,0.53,0.01,0.72,0.03c0.19,0.02,0.34,0.05,0.46,0.09c0.11,0.04,0.2,0.09,0.25,0.15c0.05,0.06,0.07,0.13,0.07,0.21V200.07z
				"/>
		</g>
	</g>
	<circle class="st0" cx="200.74" cy="37.35" r="6.55"/>
	<path class="st2" d="M44.93,102.31L44.93,102.31c-3.6,0-6.55-2.95-6.55-6.55V28.97c0-3.6,2.95-6.55,6.55-6.55h0
		c3.6,0,6.55,2.95,6.55,6.55v66.79C51.48,99.36,48.54,102.31,44.93,102.31z"/>
	<path class="st3" d="M44.93,148.43L44.93,148.43c-3.6,0-6.55-2.95-6.55-6.55v-7.97c0-3.6,2.95-6.55,6.55-6.55h0
		c3.6,0,6.55,2.95,6.55,6.55v7.97C51.48,145.48,48.54,148.43,44.93,148.43z"/>
	<path class="st2" d="M64.13,81.74L64.13,81.74c-3.6,0-6.55-2.95-6.55-6.55V18.83c0-3.6,2.95-6.55,6.55-6.55h0
		c3.6,0,6.55,2.95,6.55,6.55v56.36C70.68,78.79,67.73,81.74,64.13,81.74z"/>
	<path class="st2" d="M83.6,101.31L83.6,101.31c-3.6,0-6.55-2.95-6.55-6.55V12.12c0-3.6,2.95-6.55,6.55-6.55h0
		c3.6,0,6.55,2.95,6.55,6.55v82.64C90.15,98.36,87.2,101.31,83.6,101.31z"/>
	<path class="st3" d="M64.13,151.96L64.13,151.96c-3.6,0-6.55-2.95-6.55-6.55v-32.07c0-3.6,2.95-6.55,6.55-6.55h0
		c3.6,0,6.55,2.95,6.55,6.55v32.07C70.68,149.01,67.73,151.96,64.13,151.96z"/>
	<path class="st3" d="M83.6,179.48L83.6,179.48c-3.6,0-6.55-2.95-6.55-6.55v-40.64c0-3.6,2.95-6.55,6.55-6.55h0
		c3.6,0,6.55,2.95,6.55,6.55v40.64C90.15,176.53,87.2,179.48,83.6,179.48z"/>
	<path class="st2" d="M103.07,82.86L103.07,82.86c-3.6,0-6.55-2.95-6.55-6.55V6.55c0-3.6,2.95-6.55,6.55-6.55h0
		c3.6,0,6.55,2.95,6.55,6.55v69.76C109.61,79.91,106.67,82.86,103.07,82.86z"/>
	<path class="st3" d="M103.07,158.77L103.07,158.77c-3.6,0-6.55-2.95-6.55-6.55v-38.38c0-3.6,2.95-6.55,6.55-6.55h0
		c3.6,0,6.55,2.95,6.55,6.55v38.38C109.61,155.82,106.67,158.77,103.07,158.77z"/>
	<path class="st2" d="M122.53,63.69L122.53,63.69c-3.6,0-6.55-2.95-6.55-6.55V12.12c0-3.6,2.95-6.55,6.55-6.55h0
		c3.6,0,6.55,2.95,6.55,6.55v45.02C129.08,60.74,126.14,63.69,122.53,63.69z"/>
	<path class="st3" d="M122.53,150L122.53,150c-3.6,0-6.55-2.95-6.55-6.55V94.67c0-3.6,2.95-6.55,6.55-6.55h0
		c3.6,0,6.55,2.95,6.55,6.55v48.78C129.08,147.06,126.14,150,122.53,150z"/>
	<path class="st2" d="M142.16,83.16L142.16,83.16c-3.6,0-6.55-2.95-6.55-6.55V9.28c0-3.6,2.95-6.55,6.55-6.55h0
		c3.6,0,6.55,2.95,6.55,6.55v67.33C148.71,80.21,145.76,83.16,142.16,83.16z"/>
	<path class="st3" d="M142.16,150.99L142.16,150.99c-3.6,0-6.55-2.95-6.55-6.55v-30.29c0-3.6,2.95-6.55,6.55-6.55h0
		c3.6,0,6.55,2.95,6.55,6.55v30.29C148.71,148.04,145.76,150.99,142.16,150.99z"/>
	<path class="st2" d="M161.47,64.27L161.47,64.27c-3.6,0-6.55-2.95-6.55-6.55V16.97c0-3.6,2.95-6.55,6.55-6.55h0
		c3.6,0,6.55,2.95,6.55,6.55v40.75C168.02,61.32,165.07,64.27,161.47,64.27z"/>
	<path class="st3" d="M161.47,139.47L161.47,139.47c-3.6,0-6.55-2.95-6.55-6.55V95.25c0-3.6,2.95-6.55,6.55-6.55h0
		c3.6,0,6.55,2.95,6.55,6.55v37.67C168.02,136.52,165.07,139.47,161.47,139.47z"/>
	<path class="st2" d="M180.94,44.92L180.94,44.92c-3.6,0-6.55-2.95-6.55-6.55v-5.82c0-3.6,2.95-6.55,6.55-6.55l0,0
		c3.6,0,6.55,2.95,6.55,6.55v5.82C187.49,41.98,184.54,44.92,180.94,44.92z"/>
	<path class="st3" d="M180.94,130.28L180.94,130.28c-3.6,0-6.55-2.95-6.55-6.55V75.91c0-3.6,2.95-6.55,6.55-6.55l0,0
		c3.6,0,6.55,2.95,6.55,6.55v47.83C187.49,127.34,184.54,130.28,180.94,130.28z"/>
	<path class="st0" d="M200.74,99.14L200.74,99.14c-3.6,0-6.55-2.95-6.55-6.55V55.57c0-3.6,2.95-6.55,6.55-6.55l0,0
		c3.6,0,6.55,2.95,6.55,6.55v37.02C207.29,96.19,204.34,99.14,200.74,99.14z"/>
	<path class="st4" d="M18.4,57.35"/>
	<g>
		<path class="st0" d="M25.14,133.69L25.14,133.69c-3.75,0-6.82-3.07-6.82-6.82V59.88c0-3.75,3.07-6.82,6.82-6.82h0
			c3.47,0,6.28,2.81,6.28,6.28v68.07C31.42,130.88,28.61,133.69,25.14,133.69z"/>
		<path class="st0" d="M12.01,83.94c0-2.24-3.1-2.84-3.93-0.75l-7.55,19.09c-0.32,0.8-0.46,1.62-0.47,2.43
			c-0.18,1.36,0.04,2.79,0.74,4.08l0,0c2.92,5.46,11.21,3.39,11.21-2.81V83.94z"/>
	</g>
	<path class="st4" d="M18.48,56.19"/>
</g>
</svg>
