<?xml version="1.0" encoding="utf-8"?>
<!-- Generator: Adobe Illustrator 25.4.1, SVG Export Plug-In . SVG Version: 6.00 Build 0)  -->
<svg version="1.1" id="圖層_1" xmlns="http://www.w3.org/2000/svg" xmlns:xlink="http://www.w3.org/1999/xlink" x="0px" y="0px"
	 viewBox="0 0 175 175" style="enable-background:new 0 0 175 175;" xml:space="preserve">
<style type="text/css">
	.st0{fill:#006098;}
	.st1{fill:#00416B;}
	.st2{fill:#6AAAE4;}
	.st3{fill:#0071CE;}
	.st4{fill:#92C0E9;}
</style>
<g>
	<path class="st0" d="M145.64,51.41c-0.01-0.13-0.02-0.25-0.04-0.38c-0.01-0.08-0.03-0.17-0.05-0.25c-0.03-0.12-0.07-0.24-0.11-0.36
		c-0.03-0.07-0.05-0.15-0.08-0.22c-0.06-0.12-0.12-0.24-0.19-0.36c-0.03-0.06-0.06-0.12-0.1-0.17c-0.11-0.16-0.23-0.31-0.37-0.44
		c-0.01-0.01-0.01-0.01-0.02-0.02c-0.14-0.14-0.3-0.27-0.46-0.38c-0.05-0.04-0.11-0.06-0.17-0.1c-0.12-0.07-0.23-0.14-0.36-0.2
		c-0.07-0.03-0.15-0.06-0.22-0.08c-0.12-0.04-0.24-0.08-0.36-0.11c-0.08-0.02-0.16-0.03-0.25-0.05c-0.12-0.02-0.25-0.03-0.38-0.04
		c-0.09,0-0.18,0-0.27,0c-0.13,0-0.26,0.02-0.39,0.04c-0.08,0.01-0.16,0.02-0.24,0.04c-1,0.23-1.82,0.91-2.24,1.82
		c-0.04,0.08-0.07,0.16-0.1,0.24c-0.04,0.1-0.07,0.21-0.1,0.32c-0.02,0.07-0.04,0.15-0.06,0.22c-0.03,0.18-0.05,0.37-0.06,0.56
		c0,0.07,0,0.15,0,0.22c0,0.05,0,0.1,0.01,0.16c0.01,0.09,0.02,0.17,0.04,0.26c0.01,0.04,0.01,0.09,0.02,0.13
		c0.03,0.11,0.06,0.22,0.09,0.32c0,0.01,0.01,0.03,0.01,0.04c0.07,0.21,0.04,0.44-0.12,0.6L128.86,63.4
		c-0.15,0.15-0.38,0.19-0.58,0.11c0,0,0,0,0,0c-0.12-0.04-0.24-0.08-0.37-0.11c-0.04-0.01-0.08-0.01-0.12-0.02
		c-0.09-0.02-0.18-0.03-0.27-0.05c-0.05-0.01-0.1-0.01-0.15-0.01c-0.08,0-0.15-0.01-0.23-0.01c-0.19,0-0.37,0.02-0.55,0.06
		c-0.08,0.01-0.15,0.03-0.23,0.05c-0.1,0.03-0.2,0.06-0.29,0.09c-0.09,0.03-0.17,0.06-0.26,0.1c-0.74,0.34-1.33,0.93-1.66,1.68
		c-0.02,0.06-0.04,0.11-0.06,0.17c-0.05,0.12-0.09,0.25-0.12,0.38c-0.02,0.06-0.03,0.13-0.04,0.19c-0.03,0.18-0.05,0.37-0.06,0.56
		c0,0.03,0,0.06,0,0.09c0,0.22,0.03,0.44,0.08,0.65c0,0.01,0.01,0.02,0.01,0.04c0.03,0.11,0.05,0.21,0.09,0.32
		c0.07,0.2,0.03,0.42-0.12,0.57l-9.26,9.06l-0.82,0.8c-0.16,0.16-0.39,0.19-0.6,0.11c-0.15-0.06-0.31-0.1-0.48-0.13
		c-0.04-0.01-0.08-0.02-0.12-0.02c-0.17-0.03-0.34-0.05-0.51-0.05c-0.17,0-0.34,0.02-0.5,0.05c-0.04,0.01-0.08,0.01-0.12,0.02
		c-0.16,0.03-0.32,0.07-0.47,0.13c-0.21,0.07-0.44,0.04-0.59-0.11l-1.16-1.15l-9.19-9.12v0c-0.16-0.16-0.19-0.39-0.12-0.6
		c0-0.01,0.01-0.03,0.01-0.04c0.04-0.11,0.07-0.22,0.09-0.33c0.01-0.04,0.02-0.09,0.02-0.13c0.02-0.08,0.03-0.17,0.04-0.26
		c0.01-0.05,0.01-0.1,0.01-0.16c0-0.07,0.01-0.14,0-0.22c0-0.19-0.02-0.38-0.06-0.56c-0.01-0.07-0.04-0.14-0.06-0.21
		c-0.03-0.11-0.06-0.22-0.1-0.32c-0.03-0.08-0.06-0.16-0.1-0.24c-0.52-1.11-1.63-1.88-2.92-1.91c-0.05,0-0.11,0-0.16,0
		c-0.17,0-0.34,0.02-0.5,0.05c-0.03,0.01-0.07,0.01-0.1,0.01c-0.19,0.04-0.37,0.1-0.55,0.17c-0.04,0.02-0.09,0.04-0.13,0.06
		c-0.14,0.06-0.28,0.14-0.41,0.22c-0.04,0.02-0.07,0.04-0.11,0.07c-0.15,0.11-0.3,0.23-0.43,0.36c-0.03,0.03-0.05,0.06-0.08,0.09
		c-0.11,0.11-0.2,0.23-0.29,0.36c-0.03,0.04-0.06,0.08-0.08,0.12c-0.1,0.16-0.19,0.32-0.27,0.5c-0.01,0.02-0.02,0.05-0.03,0.08
		c-0.06,0.15-0.11,0.32-0.15,0.48c-0.01,0.05-0.02,0.1-0.03,0.15c-0.04,0.19-0.06,0.39-0.06,0.6c0,0.17,0.02,0.33,0.04,0.49
		c0.01,0.04,0.01,0.08,0.02,0.12c0.03,0.16,0.07,0.31,0.12,0.46c0.07,0.2,0.03,0.43-0.12,0.58v0L83.4,77.88
		c-0.16,0.15-0.38,0.19-0.59,0.11c0,0,0,0,0,0c-0.12-0.04-0.24-0.08-0.37-0.11c-0.04-0.01-0.08-0.01-0.12-0.02
		c-0.09-0.02-0.18-0.04-0.27-0.05C82,77.8,81.95,77.8,81.9,77.8c-0.08,0-0.16-0.01-0.24-0.01c-0.19,0-0.37,0.02-0.55,0.06
		c-0.08,0.02-0.16,0.04-0.24,0.06c-0.09,0.02-0.18,0.05-0.27,0.09c-0.09,0.03-0.19,0.07-0.28,0.11c-0.74,0.34-1.34,0.95-1.66,1.7
		c0,0.01-0.01,0.02-0.01,0.03c-0.07,0.16-0.12,0.34-0.16,0.51c-0.01,0.05-0.02,0.1-0.03,0.15c-0.03,0.18-0.05,0.37-0.06,0.57
		c0,0.03,0,0.07,0,0.1c0,0.21,0.02,0.42,0.07,0.62c0,0.02,0.01,0.03,0.01,0.05c0.02,0.1,0.05,0.2,0.08,0.29
		c0.07,0.2,0.03,0.41-0.12,0.55l-10.13,9.6h0c-0.16,0.15-0.4,0.18-0.6,0.1c0,0,0,0,0,0c-0.16-0.06-0.33-0.11-0.49-0.14
		c-0.04-0.01-0.08-0.02-0.13-0.02c-0.17-0.03-0.35-0.05-0.53-0.05c-0.17,0-0.34,0.02-0.51,0.05c-0.04,0.01-0.08,0.01-0.12,0.02
		c-0.16,0.03-0.32,0.07-0.47,0.13c-0.21,0.08-0.44,0.04-0.59-0.11L54.63,82.13c-0.16-0.16-0.19-0.39-0.12-0.59
		c0.01-0.01,0.01-0.03,0.01-0.05c0.04-0.1,0.07-0.21,0.09-0.32c0.01-0.04,0.02-0.09,0.02-0.13c0.02-0.08,0.03-0.17,0.04-0.25
		c0.01-0.05,0.01-0.1,0.01-0.16c0-0.07,0.01-0.14,0-0.22c0-0.19-0.02-0.38-0.06-0.56c-0.01-0.07-0.04-0.14-0.05-0.21
		c-0.03-0.11-0.06-0.22-0.1-0.33c-0.03-0.08-0.06-0.15-0.09-0.23c-0.52-1.11-1.63-1.89-2.93-1.92c-0.05,0-0.11,0-0.16,0
		c-0.17,0-0.34,0.02-0.51,0.05c-0.03,0.01-0.06,0.01-0.09,0.01c-0.19,0.04-0.37,0.1-0.55,0.17c-0.04,0.02-0.09,0.04-0.13,0.06
		c-0.14,0.06-0.28,0.14-0.41,0.22c-0.04,0.02-0.07,0.04-0.11,0.07c-0.15,0.11-0.3,0.23-0.43,0.36c-0.03,0.03-0.05,0.06-0.08,0.09
		c-0.11,0.11-0.2,0.23-0.29,0.36c-0.03,0.04-0.06,0.08-0.08,0.12c-0.1,0.16-0.19,0.32-0.27,0.5c-0.01,0.02-0.02,0.05-0.03,0.08
		c-0.06,0.15-0.11,0.32-0.15,0.48c-0.01,0.05-0.02,0.1-0.03,0.15c-0.04,0.19-0.06,0.39-0.06,0.6c0,0.19,0.02,0.37,0.05,0.55
		c0.01,0.04,0.02,0.08,0.02,0.13c0.04,0.17,0.09,0.34,0.15,0.5c0,0,0,0,0,0.01c0.08,0.21,0.05,0.44-0.1,0.6h0l-2.6,2.79l-7.61,8.15
		c-0.15,0.16-0.37,0.2-0.57,0.13c-0.08-0.03-0.17-0.04-0.25-0.06c-0.03-0.01-0.05-0.02-0.08-0.02c-0.19-0.04-0.39-0.06-0.6-0.06
		c-0.04,0-0.08,0-0.13,0c-0.2,0-0.4,0.02-0.59,0.06c-0.02,0-0.04,0.01-0.06,0.02c-1.23,0.27-2.2,1.23-2.5,2.45
		c-0.02,0.08-0.04,0.16-0.05,0.24c-0.02,0.12-0.03,0.25-0.04,0.38c0,0.09-0.01,0.18,0,0.27c0,0.13,0.02,0.26,0.04,0.38
		c0.01,0.08,0.02,0.17,0.04,0.25c0.03,0.13,0.07,0.26,0.12,0.38c0.02,0.07,0.04,0.14,0.07,0.2c0.07,0.15,0.15,0.3,0.24,0.43
		c0.02,0.03,0.03,0.07,0.05,0.1c0.11,0.17,0.24,0.32,0.38,0.46c0.04,0.04,0.09,0.08,0.13,0.11c0.11,0.1,0.21,0.19,0.33,0.27
		c0.06,0.04,0.13,0.08,0.2,0.12c0.11,0.06,0.22,0.13,0.33,0.18c0.07,0.03,0.15,0.06,0.23,0.09c0.11,0.04,0.23,0.08,0.35,0.11
		c0.08,0.02,0.17,0.04,0.25,0.05c0.12,0.02,0.25,0.03,0.37,0.04c0.09,0,0.18,0.01,0.27,0c0.13,0,0.26-0.02,0.39-0.04
		c0.08-0.01,0.16-0.02,0.24-0.04c1-0.23,1.82-0.91,2.24-1.81c0.05-0.1,0.09-0.21,0.12-0.31c0.03-0.08,0.05-0.16,0.08-0.24
		c0.03-0.09,0.05-0.18,0.07-0.27c0.03-0.18,0.05-0.37,0.06-0.56c0-0.09-0.01-0.18-0.01-0.26c0-0.05,0-0.1-0.01-0.15
		c-0.01-0.11-0.04-0.22-0.06-0.32c-0.01-0.03-0.01-0.06-0.02-0.08c-0.03-0.13-0.08-0.26-0.13-0.39c0,0,0-0.01,0-0.01
		c-0.08-0.21-0.05-0.44,0.1-0.61l8.2-8.79l1.98-2.13c0.15-0.16,0.37-0.23,0.57-0.16c0.07,0.02,0.14,0.03,0.22,0.05
		c0.06,0.01,0.12,0.03,0.18,0.04c0.2,0.04,0.41,0.07,0.62,0.07c0.17,0,0.34-0.02,0.51-0.05c0.04-0.01,0.08-0.01,0.12-0.02
		c0.16-0.03,0.32-0.07,0.47-0.13c0.21-0.08,0.44-0.04,0.59,0.11c0,0,0,0,0,0l10.22,10.11c0,0,0,0,0,0c0.16,0.16,0.19,0.39,0.12,0.59
		c-0.01,0.02-0.01,0.03-0.01,0.05c-0.03,0.1-0.07,0.21-0.09,0.32c-0.01,0.04-0.02,0.09-0.02,0.13c-0.02,0.08-0.03,0.17-0.04,0.26
		c-0.01,0.05-0.01,0.1-0.01,0.16c0,0.07,0,0.14,0,0.22c0,0.19,0.02,0.38,0.06,0.56c0.01,0.07,0.04,0.14,0.06,0.21
		c0.03,0.11,0.06,0.22,0.1,0.33c0.03,0.08,0.06,0.16,0.1,0.23c0.52,1.11,1.63,1.88,2.92,1.91c0.05,0,0.11,0,0.16,0
		c0.17,0,0.34-0.02,0.5-0.05c0.03-0.01,0.07-0.01,0.1-0.01c0.19-0.04,0.37-0.1,0.55-0.17c0.04-0.02,0.09-0.04,0.13-0.06
		c0.14-0.06,0.28-0.14,0.41-0.22c0.04-0.02,0.07-0.04,0.11-0.07c0.15-0.11,0.3-0.23,0.43-0.36c0.03-0.03,0.05-0.06,0.08-0.09
		c0.11-0.11,0.21-0.23,0.3-0.36c0.03-0.04,0.06-0.08,0.08-0.12c0.1-0.16,0.19-0.32,0.27-0.5c0.01-0.02,0.02-0.05,0.03-0.08
		c0.06-0.15,0.11-0.32,0.15-0.48c0.01-0.05,0.02-0.1,0.03-0.15c0.04-0.19,0.06-0.39,0.06-0.6c0-0.22-0.03-0.43-0.07-0.63
		c-0.01-0.06-0.03-0.12-0.04-0.18c-0.02-0.07-0.03-0.15-0.05-0.22c-0.07-0.21,0-0.44,0.16-0.59l10.09-9.57
		c0.16-0.15,0.39-0.18,0.59-0.1c0,0,0.01,0,0.01,0c0.12,0.05,0.24,0.09,0.37,0.12c0,0,0.01,0,0.01,0c0.13,0.03,0.26,0.06,0.39,0.07
		c0.04,0.01,0.09,0,0.13,0.01c0.09,0.01,0.18,0.02,0.27,0.02c0.19,0,0.37-0.02,0.55-0.06c0.08-0.01,0.16-0.03,0.25-0.06
		c0.09-0.02,0.17-0.05,0.26-0.08c0.1-0.03,0.2-0.07,0.3-0.11c0.73-0.33,1.32-0.93,1.65-1.66c0.03-0.07,0.05-0.14,0.08-0.21
		c0.04-0.11,0.08-0.22,0.11-0.34c0.02-0.07,0.04-0.14,0.05-0.21c0.03-0.18,0.05-0.37,0.06-0.55c0-0.08,0-0.15-0.01-0.22
		c0-0.05,0-0.1-0.01-0.15c-0.01-0.09-0.03-0.18-0.04-0.26c-0.01-0.04-0.01-0.08-0.02-0.11c-0.03-0.12-0.06-0.24-0.1-0.36
		c0,0,0,0,0,0c-0.07-0.2-0.03-0.42,0.12-0.57h0L95.16,69.4c0,0,0,0,0,0c0.16-0.16,0.39-0.19,0.6-0.11c0.15,0.06,0.31,0.1,0.47,0.13
		c0.04,0.01,0.08,0.02,0.12,0.02c0.17,0.03,0.33,0.05,0.51,0.05c0.17,0,0.34-0.02,0.5-0.05c0.04-0.01,0.08-0.01,0.12-0.02
		c0.16-0.03,0.32-0.07,0.47-0.13c0.21-0.07,0.44-0.04,0.59,0.11l3.86,3.83l6.49,6.44c0.16,0.16,0.19,0.39,0.12,0.59
		c0,0.01-0.01,0.03-0.01,0.04c-0.04,0.11-0.07,0.21-0.09,0.32c-0.01,0.04-0.02,0.09-0.02,0.13c-0.02,0.08-0.03,0.17-0.04,0.26
		c-0.01,0.05-0.01,0.1-0.01,0.16c0,0.07-0.01,0.15,0,0.22c0,0.19,0.02,0.38,0.06,0.56c0.01,0.07,0.04,0.14,0.06,0.21
		c0.03,0.11,0.06,0.22,0.1,0.32c0.03,0.08,0.06,0.16,0.1,0.23c0.52,1.11,1.62,1.89,2.92,1.91c0.05,0,0.11,0,0.16,0
		c0.17,0,0.34-0.02,0.5-0.05c0.03-0.01,0.06-0.01,0.1-0.01c0.19-0.04,0.37-0.1,0.55-0.17c0.04-0.02,0.09-0.04,0.13-0.06
		c0.14-0.06,0.28-0.14,0.41-0.22c0.04-0.02,0.07-0.04,0.11-0.07c0.15-0.11,0.3-0.23,0.43-0.36c0.03-0.03,0.05-0.06,0.08-0.09
		c0.11-0.11,0.2-0.23,0.29-0.36c0.03-0.04,0.06-0.08,0.08-0.12c0.1-0.16,0.19-0.32,0.27-0.5c0.01-0.03,0.02-0.05,0.03-0.08
		c0.06-0.15,0.11-0.32,0.15-0.48c0.01-0.05,0.02-0.1,0.03-0.15c0.04-0.19,0.06-0.39,0.06-0.6c0-0.22-0.03-0.44-0.08-0.65
		c-0.01-0.06-0.03-0.12-0.05-0.18c-0.02-0.07-0.03-0.15-0.06-0.22c-0.07-0.2-0.03-0.42,0.12-0.57l10.08-9.86
		c0.15-0.15,0.38-0.18,0.58-0.11c0,0,0,0,0.01,0c0.12,0.04,0.24,0.08,0.37,0.11c0.03,0.01,0.06,0.01,0.1,0.02
		c0.1,0.02,0.19,0.04,0.29,0.05c0.05,0.01,0.1,0.01,0.15,0.01c0.08,0.01,0.16,0.01,0.24,0.01c0.19,0,0.37-0.02,0.55-0.06
		c0.08-0.01,0.16-0.03,0.24-0.06c0.09-0.02,0.18-0.05,0.27-0.08c0.09-0.03,0.19-0.06,0.28-0.11c0.73-0.33,1.32-0.92,1.65-1.66
		c0.03-0.07,0.06-0.15,0.08-0.22c0.04-0.11,0.07-0.21,0.1-0.33c0.02-0.07,0.04-0.14,0.05-0.21c0.03-0.18,0.05-0.36,0.06-0.55
		c0-0.08,0-0.15-0.01-0.23c0-0.05,0-0.1-0.01-0.15c-0.01-0.09-0.03-0.18-0.04-0.27c-0.01-0.04-0.01-0.07-0.02-0.11
		c-0.03-0.12-0.06-0.24-0.11-0.36c0,0,0,0,0,0c-0.07-0.2-0.04-0.42,0.11-0.57v0l10.24-10.17c0.16-0.16,0.39-0.19,0.6-0.12
		c0.01,0,0.02,0,0.03,0.01c0.11,0.04,0.23,0.07,0.34,0.1c0.04,0.01,0.09,0.02,0.13,0.02c0.09,0.02,0.17,0.03,0.26,0.04
		c0.05,0.01,0.1,0.01,0.16,0.01c0.07,0,0.15,0.01,0.23,0.01c0.19,0,0.38-0.02,0.56-0.06c0.08-0.02,0.16-0.04,0.24-0.06
		c0.1-0.03,0.2-0.06,0.29-0.09c0.09-0.03,0.18-0.07,0.27-0.11c0.9-0.43,1.58-1.24,1.81-2.24c0.02-0.08,0.03-0.16,0.04-0.24
		c0.02-0.13,0.03-0.26,0.04-0.39C145.64,51.59,145.64,51.5,145.64,51.41z"/>
	<path class="st1" d="M16.06,42.82"/>
	<g>
		<g>
			<path class="st0" d="M13.7,145.85c0,0.18-0.01,0.33-0.02,0.45c-0.02,0.12-0.04,0.22-0.07,0.3c-0.03,0.08-0.07,0.14-0.11,0.17
				c-0.04,0.04-0.1,0.05-0.16,0.05h-5.3c-0.2,0-0.36-0.06-0.5-0.17s-0.2-0.3-0.2-0.57v-10.49c0-0.06,0.02-0.11,0.06-0.16
				c0.04-0.05,0.1-0.09,0.19-0.12c0.09-0.03,0.21-0.05,0.36-0.07c0.15-0.02,0.34-0.03,0.57-0.03c0.23,0,0.42,0.01,0.57,0.03
				c0.15,0.02,0.27,0.04,0.36,0.07c0.09,0.03,0.15,0.07,0.19,0.12c0.04,0.05,0.06,0.1,0.06,0.16v9.3h3.64
				c0.06,0,0.11,0.02,0.16,0.05c0.04,0.03,0.08,0.09,0.11,0.16c0.03,0.07,0.05,0.17,0.07,0.29C13.69,145.52,13.7,145.67,13.7,145.85
				z"/>
			<path class="st0" d="M25.11,145.95c0.07,0.21,0.12,0.38,0.13,0.51c0.02,0.13-0.01,0.22-0.07,0.28c-0.07,0.06-0.18,0.1-0.35,0.12
				c-0.17,0.02-0.4,0.02-0.69,0.02c-0.3,0-0.54,0-0.71-0.01c-0.17-0.01-0.3-0.03-0.39-0.05c-0.09-0.03-0.15-0.06-0.19-0.11
				c-0.04-0.05-0.07-0.11-0.09-0.19l-0.78-2.32h-4.34l-0.73,2.26c-0.02,0.08-0.06,0.15-0.09,0.21c-0.04,0.06-0.1,0.1-0.19,0.13
				c-0.09,0.03-0.21,0.05-0.37,0.07c-0.16,0.01-0.37,0.02-0.62,0.02c-0.27,0-0.49-0.01-0.64-0.03c-0.15-0.02-0.26-0.06-0.32-0.13
				c-0.06-0.07-0.08-0.17-0.06-0.29c0.02-0.12,0.06-0.29,0.13-0.5l3.56-10.25c0.04-0.1,0.08-0.18,0.13-0.25
				c0.05-0.06,0.12-0.11,0.23-0.14c0.1-0.03,0.25-0.05,0.43-0.06c0.18-0.01,0.43-0.01,0.73-0.01c0.35,0,0.63,0,0.84,0.01
				c0.21,0.01,0.37,0.03,0.49,0.06s0.2,0.08,0.25,0.15c0.05,0.07,0.09,0.16,0.13,0.27L25.11,145.95z M19.8,137.48L19.8,137.48
				l-1.64,4.91h3.28L19.8,137.48z"/>
			<path class="st0" d="M34.53,143.36c0,0.41-0.06,0.78-0.17,1.12c-0.11,0.33-0.27,0.63-0.47,0.88c-0.2,0.26-0.44,0.48-0.71,0.66
				c-0.28,0.18-0.58,0.34-0.92,0.46s-0.69,0.21-1.07,0.26c-0.38,0.06-0.8,0.09-1.26,0.09h-3.07c-0.2,0-0.36-0.06-0.5-0.17
				s-0.2-0.3-0.2-0.57v-10.07c0-0.26,0.07-0.45,0.2-0.57c0.13-0.12,0.3-0.17,0.5-0.17h2.9c0.71,0,1.31,0.06,1.8,0.18
				c0.49,0.12,0.9,0.3,1.24,0.54c0.34,0.24,0.59,0.55,0.77,0.91c0.18,0.37,0.27,0.8,0.27,1.3c0,0.28-0.04,0.54-0.11,0.79
				c-0.07,0.25-0.18,0.47-0.31,0.67c-0.14,0.2-0.31,0.38-0.5,0.54c-0.2,0.15-0.43,0.28-0.68,0.37c0.33,0.06,0.63,0.16,0.91,0.31
				c0.28,0.15,0.52,0.34,0.72,0.58c0.21,0.24,0.37,0.51,0.49,0.83S34.53,142.97,34.53,143.36z M31.49,138.5
				c0-0.23-0.04-0.44-0.11-0.63c-0.07-0.18-0.18-0.34-0.32-0.46s-0.32-0.22-0.54-0.28c-0.22-0.07-0.51-0.1-0.87-0.1h-1.19v3h1.31
				c0.34,0,0.61-0.04,0.81-0.12c0.2-0.08,0.37-0.19,0.5-0.33c0.13-0.14,0.23-0.3,0.3-0.49C31.46,138.9,31.49,138.7,31.49,138.5z
				 M32.09,143.44c0-0.27-0.04-0.51-0.13-0.72c-0.09-0.21-0.22-0.39-0.39-0.53c-0.17-0.14-0.39-0.25-0.66-0.33
				c-0.27-0.08-0.62-0.12-1.04-0.12h-1.39v3.29h1.7c0.33,0,0.6-0.03,0.83-0.1c0.22-0.07,0.42-0.17,0.58-0.3
				c0.16-0.13,0.29-0.3,0.38-0.5C32.05,143.93,32.09,143.7,32.09,143.44z"/>
			<path class="st0" d="M43.84,138.16c0,0.13,0,0.24-0.01,0.32c-0.01,0.08-0.02,0.14-0.04,0.19c-0.02,0.04-0.04,0.07-0.06,0.09
				c-0.02,0.02-0.05,0.02-0.08,0.02c-0.03,0-0.07-0.01-0.11-0.02c-0.04-0.02-0.09-0.03-0.14-0.05c-0.06-0.02-0.12-0.03-0.2-0.05
				c-0.08-0.02-0.17-0.02-0.27-0.02c-0.12,0-0.23,0.02-0.32,0.06c-0.09,0.04-0.16,0.1-0.22,0.19c-0.06,0.08-0.1,0.19-0.13,0.33
				c-0.03,0.13-0.04,0.3-0.04,0.5v0.56h1.12c0.04,0,0.08,0.01,0.11,0.03c0.03,0.02,0.06,0.06,0.09,0.11
				c0.02,0.05,0.04,0.12,0.05,0.22c0.01,0.09,0.02,0.2,0.02,0.34c0,0.25-0.02,0.43-0.07,0.54c-0.05,0.11-0.11,0.16-0.2,0.16h-1.12
				v4.94c0,0.05-0.01,0.09-0.04,0.12c-0.03,0.03-0.07,0.06-0.14,0.09c-0.06,0.02-0.15,0.04-0.27,0.05
				c-0.11,0.01-0.25,0.02-0.42,0.02s-0.3-0.01-0.41-0.02c-0.11-0.01-0.2-0.03-0.27-0.05s-0.11-0.05-0.14-0.09
				c-0.03-0.03-0.04-0.07-0.04-0.12v-4.94h-0.77c-0.09,0-0.15-0.05-0.2-0.16c-0.04-0.11-0.06-0.29-0.06-0.54
				c0-0.13,0.01-0.24,0.02-0.34c0.01-0.09,0.03-0.16,0.05-0.22c0.02-0.05,0.05-0.09,0.08-0.11c0.03-0.02,0.07-0.03,0.12-0.03h0.76
				v-0.51c0-0.42,0.04-0.78,0.12-1.09c0.08-0.31,0.21-0.57,0.39-0.78c0.17-0.21,0.4-0.36,0.67-0.47c0.27-0.1,0.59-0.16,0.96-0.16
				c0.18,0,0.35,0.02,0.51,0.04c0.16,0.03,0.29,0.06,0.38,0.1c0.09,0.03,0.15,0.07,0.18,0.1c0.03,0.03,0.06,0.07,0.08,0.13
				c0.02,0.06,0.03,0.13,0.04,0.22C43.83,137.92,43.84,138.03,43.84,138.16z"/>
			<path class="st0" d="M50.55,143.48c0,0.52-0.07,0.99-0.21,1.42c-0.14,0.43-0.34,0.8-0.62,1.11c-0.28,0.31-0.63,0.55-1.05,0.72
				c-0.42,0.17-0.91,0.25-1.47,0.25c-0.54,0-1.02-0.08-1.42-0.23s-0.73-0.37-1-0.66c-0.26-0.29-0.46-0.64-0.59-1.06
				c-0.13-0.42-0.19-0.9-0.19-1.44c0-0.52,0.07-1,0.21-1.43c0.14-0.43,0.35-0.8,0.63-1.11c0.28-0.31,0.63-0.55,1.04-0.71
				c0.42-0.17,0.91-0.25,1.47-0.25c0.55,0,1.02,0.07,1.42,0.22c0.4,0.15,0.73,0.37,1,0.65c0.26,0.29,0.46,0.64,0.59,1.06
				S50.55,142.94,50.55,143.48z M48.78,143.55c0-0.3-0.02-0.58-0.07-0.83c-0.05-0.25-0.13-0.47-0.24-0.66
				c-0.11-0.19-0.27-0.33-0.46-0.44c-0.19-0.1-0.43-0.16-0.71-0.16c-0.26,0-0.48,0.05-0.67,0.14c-0.19,0.09-0.35,0.23-0.47,0.41
				c-0.12,0.18-0.22,0.4-0.28,0.65c-0.06,0.25-0.09,0.54-0.09,0.87c0,0.3,0.03,0.58,0.08,0.83c0.05,0.25,0.13,0.47,0.24,0.66
				c0.11,0.19,0.26,0.33,0.45,0.43c0.19,0.1,0.43,0.15,0.71,0.15c0.26,0,0.49-0.05,0.68-0.14c0.19-0.09,0.35-0.23,0.47-0.41
				c0.12-0.18,0.21-0.39,0.27-0.65C48.75,144.16,48.78,143.87,48.78,143.55z"/>
			<path class="st0" d="M55.83,141.06c0,0.16,0,0.3-0.01,0.4c-0.01,0.1-0.02,0.19-0.04,0.25c-0.02,0.06-0.04,0.1-0.07,0.12
				c-0.03,0.02-0.07,0.03-0.11,0.03c-0.04,0-0.08-0.01-0.12-0.02c-0.05-0.02-0.1-0.03-0.15-0.05c-0.06-0.02-0.12-0.03-0.19-0.05
				c-0.07-0.02-0.14-0.02-0.23-0.02c-0.1,0-0.19,0.02-0.29,0.06c-0.1,0.04-0.2,0.1-0.3,0.18c-0.1,0.08-0.21,0.19-0.32,0.33
				c-0.11,0.14-0.23,0.31-0.36,0.51v3.81c0,0.05-0.01,0.09-0.04,0.12c-0.03,0.03-0.07,0.06-0.14,0.09
				c-0.07,0.02-0.15,0.04-0.26,0.05c-0.11,0.01-0.25,0.02-0.42,0.02s-0.31-0.01-0.42-0.02c-0.11-0.01-0.2-0.03-0.26-0.05
				s-0.11-0.05-0.14-0.09c-0.03-0.03-0.04-0.07-0.04-0.12v-6.11c0-0.05,0.01-0.09,0.03-0.12c0.02-0.03,0.06-0.06,0.12-0.09
				c0.06-0.02,0.14-0.04,0.23-0.05c0.09-0.01,0.21-0.02,0.35-0.02c0.15,0,0.27,0.01,0.36,0.02c0.1,0.01,0.17,0.03,0.22,0.05
				c0.05,0.02,0.09,0.05,0.11,0.09c0.02,0.03,0.03,0.07,0.03,0.12v0.76c0.16-0.23,0.31-0.42,0.45-0.57c0.14-0.15,0.28-0.27,0.4-0.35
				s0.26-0.15,0.38-0.18c0.13-0.03,0.26-0.05,0.38-0.05c0.06,0,0.12,0,0.19,0.01c0.07,0.01,0.14,0.02,0.21,0.03
				c0.07,0.02,0.14,0.03,0.19,0.05c0.05,0.02,0.09,0.04,0.12,0.06c0.03,0.02,0.04,0.05,0.05,0.08c0.01,0.03,0.02,0.07,0.03,0.11
				c0.01,0.05,0.02,0.12,0.02,0.22S55.83,140.89,55.83,141.06z"/>
		</g>
		<g>
			<path class="st0" d="M16.81,162.31c0.07,0.21,0.12,0.38,0.13,0.51c0.02,0.13-0.01,0.22-0.07,0.28c-0.07,0.06-0.18,0.1-0.35,0.12
				c-0.17,0.02-0.4,0.02-0.69,0.02c-0.3,0-0.54,0-0.71-0.01c-0.17-0.01-0.3-0.03-0.39-0.05c-0.09-0.03-0.15-0.06-0.19-0.11
				c-0.04-0.05-0.07-0.11-0.09-0.19l-0.78-2.32H9.35l-0.73,2.26c-0.02,0.08-0.06,0.15-0.09,0.21c-0.04,0.06-0.1,0.1-0.19,0.13
				c-0.09,0.03-0.21,0.05-0.37,0.07c-0.16,0.01-0.37,0.02-0.62,0.02c-0.27,0-0.49-0.01-0.64-0.03c-0.15-0.02-0.26-0.06-0.32-0.13
				c-0.06-0.07-0.08-0.17-0.06-0.29c0.02-0.12,0.06-0.29,0.13-0.5l3.56-10.25c0.04-0.1,0.08-0.18,0.13-0.25
				c0.05-0.06,0.12-0.11,0.23-0.14s0.25-0.05,0.43-0.06c0.18-0.01,0.43-0.01,0.73-0.01c0.35,0,0.63,0,0.84,0.01
				c0.21,0.01,0.37,0.03,0.49,0.06c0.12,0.03,0.2,0.08,0.25,0.15c0.05,0.07,0.09,0.16,0.13,0.27L16.81,162.31z M11.51,153.83
				L11.51,153.83l-1.64,4.91h3.28L11.51,153.83z"/>
			<path class="st0" d="M20.79,162.86c0,0.06-0.02,0.11-0.06,0.16c-0.04,0.05-0.1,0.09-0.19,0.12c-0.09,0.03-0.21,0.05-0.36,0.07
				c-0.15,0.02-0.34,0.03-0.57,0.03c-0.23,0-0.42-0.01-0.57-0.03c-0.15-0.02-0.27-0.04-0.36-0.07c-0.09-0.03-0.15-0.07-0.19-0.12
				c-0.04-0.05-0.06-0.1-0.06-0.16v-10.91c0-0.06,0.02-0.11,0.06-0.16c0.04-0.05,0.1-0.09,0.2-0.12c0.09-0.03,0.21-0.05,0.36-0.07
				c0.15-0.02,0.34-0.03,0.56-0.03c0.23,0,0.42,0.01,0.57,0.03c0.15,0.02,0.27,0.04,0.36,0.07c0.09,0.03,0.15,0.07,0.19,0.12
				c0.04,0.05,0.06,0.1,0.06,0.16V162.86z"/>
			<path class="st0" d="M27.12,158.69c0,0.35-0.03,0.59-0.1,0.72c-0.07,0.14-0.17,0.21-0.31,0.21h-3.71c-0.15,0-0.26-0.07-0.32-0.21
				c-0.07-0.14-0.1-0.38-0.1-0.72c0-0.33,0.03-0.57,0.1-0.71c0.07-0.14,0.17-0.21,0.32-0.21h3.71c0.07,0,0.13,0.01,0.18,0.04
				c0.05,0.03,0.09,0.08,0.13,0.15c0.04,0.07,0.06,0.17,0.08,0.29C27.11,158.38,27.12,158.52,27.12,158.69z"/>
			<path class="st0" d="M36.82,155.14c0,0.65-0.1,1.22-0.3,1.72c-0.2,0.5-0.5,0.92-0.88,1.26c-0.39,0.34-0.86,0.6-1.42,0.78
				c-0.56,0.18-1.23,0.27-1.99,0.27h-0.96v3.69c0,0.06-0.02,0.11-0.06,0.16c-0.04,0.05-0.1,0.09-0.19,0.12
				c-0.09,0.03-0.21,0.05-0.36,0.07c-0.15,0.02-0.34,0.03-0.57,0.03c-0.23,0-0.42-0.01-0.57-0.03c-0.15-0.02-0.27-0.04-0.36-0.07
				c-0.09-0.03-0.15-0.07-0.19-0.12c-0.04-0.05-0.05-0.1-0.05-0.16v-10.4c0-0.28,0.07-0.49,0.22-0.63c0.15-0.14,0.34-0.21,0.58-0.21
				h2.72c0.27,0,0.53,0.01,0.78,0.03c0.25,0.02,0.54,0.07,0.89,0.13c0.35,0.07,0.7,0.2,1.05,0.38c0.35,0.18,0.66,0.42,0.91,0.7
				c0.25,0.28,0.44,0.61,0.57,0.99C36.75,154.24,36.82,154.66,36.82,155.14z M34.36,155.3c0-0.41-0.07-0.74-0.21-1
				c-0.14-0.26-0.32-0.46-0.53-0.58c-0.21-0.12-0.43-0.2-0.66-0.24c-0.23-0.03-0.47-0.05-0.71-0.05h-1v3.92h1.05
				c0.38,0,0.69-0.05,0.94-0.15c0.25-0.1,0.46-0.24,0.62-0.42c0.16-0.18,0.28-0.4,0.37-0.65C34.32,155.88,34.36,155.6,34.36,155.3z"
				/>
			<path class="st0" d="M49.04,157.27c0,0.96-0.12,1.82-0.36,2.57s-0.59,1.4-1.06,1.92c-0.47,0.53-1.05,0.93-1.75,1.21
				c-0.69,0.28-1.5,0.42-2.41,0.42c-0.9,0-1.68-0.12-2.35-0.35c-0.67-0.24-1.23-0.59-1.67-1.08c-0.45-0.48-0.78-1.1-1-1.84
				s-0.33-1.63-0.33-2.64c0-0.94,0.12-1.78,0.36-2.52c0.24-0.75,0.59-1.38,1.06-1.91c0.47-0.52,1.05-0.93,1.75-1.21
				c0.69-0.28,1.5-0.42,2.42-0.42c0.87,0,1.65,0.12,2.32,0.35s1.23,0.59,1.68,1.07c0.45,0.48,0.79,1.09,1.02,1.83
				C48.92,155.4,49.04,156.27,49.04,157.27z M46.57,157.39c0-0.61-0.05-1.16-0.14-1.66c-0.1-0.5-0.26-0.92-0.49-1.28
				c-0.23-0.35-0.53-0.63-0.92-0.82c-0.38-0.19-0.86-0.29-1.43-0.29c-0.58,0-1.06,0.11-1.45,0.33c-0.39,0.22-0.7,0.51-0.94,0.87
				c-0.24,0.36-0.41,0.79-0.5,1.27c-0.1,0.49-0.15,1-0.15,1.54c0,0.63,0.05,1.2,0.14,1.7c0.1,0.5,0.26,0.93,0.48,1.29
				c0.23,0.36,0.53,0.63,0.91,0.82c0.38,0.19,0.86,0.28,1.44,0.28c0.58,0,1.06-0.11,1.45-0.32c0.39-0.21,0.7-0.51,0.94-0.88
				c0.24-0.37,0.41-0.8,0.5-1.29C46.52,158.47,46.57,157.95,46.57,157.39z"/>
			<path class="st0" d="M62.95,162.58c-0.04,0.14-0.08,0.26-0.15,0.34c-0.06,0.09-0.16,0.15-0.28,0.2
				c-0.13,0.04-0.29,0.07-0.48,0.09c-0.2,0.02-0.45,0.02-0.75,0.02c-0.34,0-0.61-0.01-0.82-0.02c-0.21-0.02-0.37-0.04-0.49-0.09
				c-0.12-0.04-0.21-0.11-0.26-0.2c-0.05-0.09-0.1-0.2-0.13-0.34l-1.85-7.32h-0.02l-1.75,7.32c-0.03,0.14-0.07,0.25-0.12,0.34
				c-0.05,0.09-0.14,0.15-0.25,0.2c-0.12,0.05-0.27,0.08-0.47,0.09c-0.2,0.02-0.46,0.02-0.79,0.02c-0.35,0-0.62-0.01-0.83-0.02
				c-0.21-0.02-0.37-0.04-0.49-0.09c-0.12-0.04-0.21-0.11-0.26-0.2c-0.05-0.09-0.1-0.2-0.13-0.34l-2.63-10.08
				c-0.05-0.21-0.08-0.38-0.09-0.5c-0.01-0.12,0.03-0.22,0.1-0.28s0.2-0.11,0.37-0.12c0.17-0.01,0.41-0.02,0.71-0.02
				c0.28,0,0.5,0,0.67,0.01c0.16,0.01,0.29,0.03,0.37,0.06c0.08,0.03,0.14,0.08,0.17,0.14c0.03,0.06,0.05,0.15,0.07,0.26l2.03,8.85
				h0.01l2.11-8.79c0.02-0.11,0.05-0.21,0.09-0.28c0.04-0.07,0.1-0.13,0.2-0.17c0.09-0.04,0.22-0.07,0.38-0.08
				c0.16-0.01,0.38-0.02,0.64-0.02c0.29,0,0.51,0.01,0.68,0.02c0.17,0.01,0.3,0.04,0.39,0.08c0.09,0.04,0.16,0.09,0.2,0.17
				c0.04,0.07,0.07,0.17,0.1,0.29l2.18,8.79h0.02l2.03-8.82c0.02-0.1,0.04-0.18,0.07-0.25c0.03-0.07,0.09-0.12,0.17-0.16
				c0.08-0.04,0.2-0.07,0.36-0.08c0.16-0.01,0.37-0.02,0.65-0.02c0.26,0,0.47,0.01,0.61,0.02c0.15,0.02,0.25,0.06,0.32,0.12
				c0.07,0.07,0.09,0.16,0.09,0.29c-0.01,0.13-0.04,0.3-0.09,0.52L62.95,162.58z"/>
			<path class="st0" d="M74.21,162.26c0,0.17-0.01,0.32-0.02,0.43c-0.01,0.12-0.04,0.21-0.07,0.28c-0.03,0.07-0.07,0.12-0.11,0.16
				c-0.04,0.03-0.09,0.05-0.15,0.05h-5.81c-0.2,0-0.36-0.06-0.5-0.17c-0.13-0.12-0.2-0.3-0.2-0.57v-10.07c0-0.26,0.07-0.45,0.2-0.57
				c0.13-0.12,0.3-0.17,0.5-0.17h5.77c0.05,0,0.1,0.02,0.14,0.04c0.04,0.03,0.08,0.08,0.11,0.16c0.03,0.07,0.05,0.17,0.07,0.29
				c0.01,0.12,0.02,0.26,0.02,0.44c0,0.17-0.01,0.31-0.02,0.42c-0.02,0.12-0.04,0.21-0.07,0.28c-0.03,0.07-0.07,0.12-0.11,0.16
				c-0.04,0.03-0.09,0.05-0.14,0.05H69.7v2.82h3.49c0.05,0,0.1,0.02,0.15,0.05c0.04,0.03,0.08,0.08,0.11,0.15
				c0.03,0.07,0.05,0.16,0.07,0.28c0.02,0.12,0.02,0.26,0.02,0.42c0,0.17-0.01,0.32-0.02,0.43c-0.01,0.11-0.04,0.2-0.07,0.27
				c-0.03,0.07-0.07,0.12-0.11,0.15c-0.04,0.03-0.09,0.04-0.15,0.04H69.7v3.26h4.16c0.05,0,0.1,0.02,0.15,0.05
				c0.04,0.03,0.08,0.09,0.11,0.16c0.03,0.07,0.05,0.17,0.07,0.28C74.21,161.94,74.21,162.09,74.21,162.26z"/>
			<path class="st0" d="M84.86,162.88c0,0.07-0.01,0.12-0.04,0.17c-0.02,0.04-0.08,0.08-0.17,0.11c-0.09,0.03-0.22,0.05-0.39,0.06
				c-0.17,0.01-0.41,0.02-0.7,0.02c-0.25,0-0.45-0.01-0.6-0.02c-0.15-0.01-0.27-0.03-0.35-0.07c-0.09-0.03-0.15-0.07-0.18-0.13
				c-0.04-0.05-0.07-0.11-0.09-0.18l-1.04-2.58c-0.12-0.29-0.25-0.55-0.37-0.78c-0.12-0.23-0.25-0.42-0.4-0.57
				c-0.15-0.15-0.31-0.27-0.5-0.34c-0.19-0.08-0.41-0.12-0.66-0.12h-0.73v4.4c0,0.06-0.02,0.11-0.06,0.16
				c-0.04,0.05-0.1,0.09-0.19,0.12c-0.09,0.03-0.21,0.05-0.36,0.07c-0.15,0.02-0.34,0.03-0.57,0.03c-0.23,0-0.42-0.01-0.57-0.03
				c-0.15-0.02-0.27-0.04-0.36-0.07c-0.09-0.03-0.15-0.07-0.19-0.12c-0.04-0.05-0.05-0.1-0.05-0.16v-10.49
				c0-0.26,0.07-0.45,0.2-0.57c0.13-0.12,0.3-0.17,0.5-0.17h2.99c0.3,0,0.55,0.01,0.75,0.02c0.2,0.01,0.37,0.03,0.54,0.04
				c0.46,0.07,0.88,0.18,1.25,0.34c0.37,0.16,0.69,0.37,0.95,0.63c0.26,0.26,0.46,0.57,0.59,0.92c0.14,0.35,0.21,0.76,0.21,1.22
				c0,0.39-0.05,0.74-0.15,1.06c-0.1,0.32-0.24,0.6-0.43,0.85c-0.19,0.25-0.43,0.47-0.71,0.65c-0.28,0.18-0.6,0.33-0.96,0.45
				c0.17,0.08,0.33,0.18,0.49,0.3c0.15,0.12,0.29,0.26,0.43,0.43c0.13,0.17,0.26,0.36,0.38,0.58c0.12,0.22,0.24,0.46,0.35,0.74
				l0.97,2.28c0.09,0.23,0.15,0.39,0.18,0.5C84.84,162.74,84.86,162.82,84.86,162.88z M81.83,155.04c0-0.38-0.09-0.7-0.26-0.96
				c-0.17-0.26-0.46-0.45-0.85-0.55c-0.12-0.03-0.25-0.05-0.41-0.07c-0.15-0.02-0.36-0.03-0.63-0.03h-1.05v3.28h1.2
				c0.33,0,0.63-0.04,0.88-0.12c0.25-0.08,0.46-0.19,0.63-0.34c0.17-0.15,0.29-0.32,0.38-0.52
				C81.79,155.51,81.83,155.29,81.83,155.04z"/>
			<path class="st0" d="M93.43,162.26c0,0.17-0.01,0.32-0.02,0.43c-0.01,0.12-0.04,0.21-0.07,0.28c-0.03,0.07-0.07,0.12-0.11,0.16
				c-0.04,0.03-0.09,0.05-0.15,0.05h-5.81c-0.2,0-0.36-0.06-0.5-0.17c-0.13-0.12-0.2-0.3-0.2-0.57v-10.07c0-0.26,0.07-0.45,0.2-0.57
				c0.13-0.12,0.3-0.17,0.5-0.17h5.77c0.05,0,0.1,0.02,0.14,0.04c0.04,0.03,0.08,0.08,0.11,0.16c0.03,0.07,0.05,0.17,0.07,0.29
				c0.01,0.12,0.02,0.26,0.02,0.44c0,0.17-0.01,0.31-0.02,0.42c-0.02,0.12-0.04,0.21-0.07,0.28c-0.03,0.07-0.07,0.12-0.11,0.16
				c-0.04,0.03-0.09,0.05-0.14,0.05h-4.13v2.82h3.49c0.05,0,0.1,0.02,0.15,0.05c0.04,0.03,0.08,0.08,0.11,0.15
				c0.03,0.07,0.05,0.16,0.07,0.28c0.02,0.12,0.02,0.26,0.02,0.42c0,0.17-0.01,0.32-0.02,0.43c-0.01,0.11-0.04,0.2-0.07,0.27
				c-0.03,0.07-0.07,0.12-0.11,0.15c-0.04,0.03-0.09,0.04-0.15,0.04h-3.49v3.26h4.16c0.05,0,0.1,0.02,0.15,0.05
				c0.04,0.03,0.08,0.09,0.11,0.16c0.03,0.07,0.05,0.17,0.07,0.28C93.42,161.94,93.43,162.09,93.43,162.26z"/>
			<path class="st0" d="M105.11,157.23c0,1.06-0.14,1.97-0.42,2.72c-0.28,0.75-0.67,1.37-1.19,1.84c-0.52,0.48-1.15,0.83-1.89,1.05
				c-0.74,0.22-1.62,0.33-2.65,0.33H96.2c-0.2,0-0.36-0.06-0.5-0.17c-0.13-0.12-0.2-0.3-0.2-0.57v-10.07c0-0.26,0.07-0.45,0.2-0.57
				c0.13-0.12,0.3-0.17,0.5-0.17h2.97c1.03,0,1.9,0.12,2.62,0.36c0.72,0.24,1.32,0.6,1.81,1.07c0.49,0.47,0.86,1.06,1.12,1.76
				C104.98,155.51,105.11,156.32,105.11,157.23z M102.68,157.31c0-0.55-0.06-1.06-0.19-1.53c-0.13-0.47-0.33-0.88-0.62-1.22
				c-0.28-0.35-0.65-0.61-1.09-0.81c-0.44-0.19-1.03-0.29-1.75-0.29h-1.19v7.86h1.22c0.64,0,1.18-0.08,1.63-0.25
				c0.44-0.17,0.81-0.42,1.1-0.75c0.29-0.34,0.51-0.75,0.66-1.25C102.6,158.56,102.68,157.98,102.68,157.31z"/>
			<path class="st0" d="M117.65,152.59c0,0.18-0.01,0.33-0.02,0.45c-0.02,0.12-0.04,0.22-0.07,0.29s-0.07,0.13-0.11,0.16
				c-0.04,0.04-0.09,0.05-0.14,0.05h-3.78v3.11h3.55c0.05,0,0.1,0.02,0.14,0.04c0.04,0.03,0.08,0.08,0.11,0.15
				c0.03,0.07,0.06,0.17,0.07,0.29c0.02,0.12,0.02,0.27,0.02,0.45c0,0.18-0.01,0.33-0.02,0.45c-0.01,0.12-0.04,0.22-0.07,0.29
				c-0.03,0.08-0.07,0.13-0.11,0.17c-0.04,0.03-0.09,0.05-0.14,0.05h-3.55v4.31c0,0.07-0.02,0.12-0.05,0.17s-0.1,0.09-0.19,0.12
				c-0.09,0.03-0.21,0.06-0.36,0.08c-0.15,0.02-0.34,0.03-0.57,0.03c-0.23,0-0.42-0.01-0.57-0.03c-0.15-0.02-0.27-0.04-0.36-0.08
				c-0.09-0.03-0.15-0.07-0.19-0.12c-0.04-0.05-0.06-0.1-0.06-0.17v-10.48c0-0.26,0.07-0.45,0.2-0.57c0.13-0.12,0.3-0.17,0.5-0.17
				h5.44c0.05,0,0.1,0.02,0.14,0.05c0.04,0.03,0.08,0.09,0.11,0.16s0.06,0.17,0.07,0.3C117.65,152.26,117.65,152.41,117.65,152.59z"
				/>
			<path class="st0" d="M121.92,162.86c0,0.06-0.02,0.11-0.06,0.16c-0.04,0.05-0.1,0.09-0.19,0.12c-0.09,0.03-0.21,0.05-0.36,0.07
				c-0.15,0.02-0.34,0.03-0.57,0.03c-0.23,0-0.42-0.01-0.57-0.03c-0.15-0.02-0.27-0.04-0.36-0.07c-0.09-0.03-0.15-0.07-0.19-0.12
				c-0.04-0.05-0.06-0.1-0.06-0.16v-10.91c0-0.06,0.02-0.11,0.06-0.16c0.04-0.05,0.1-0.09,0.2-0.12c0.09-0.03,0.21-0.05,0.36-0.07
				c0.15-0.02,0.34-0.03,0.56-0.03c0.23,0,0.42,0.01,0.57,0.03c0.15,0.02,0.27,0.04,0.36,0.07c0.09,0.03,0.15,0.07,0.19,0.12
				c0.04,0.05,0.06,0.1,0.06,0.16V162.86z"/>
			<path class="st0" d="M133.97,162.36c0,0.14-0.02,0.26-0.07,0.37c-0.05,0.11-0.11,0.2-0.19,0.27c-0.08,0.07-0.18,0.12-0.29,0.16
				c-0.11,0.03-0.22,0.05-0.34,0.05h-1c-0.21,0-0.39-0.02-0.54-0.06c-0.15-0.04-0.29-0.12-0.42-0.23c-0.13-0.11-0.25-0.26-0.37-0.45
				c-0.12-0.19-0.25-0.43-0.4-0.73l-2.88-5.4c-0.17-0.32-0.34-0.67-0.51-1.04c-0.17-0.37-0.33-0.73-0.46-1.09h-0.02
				c0.02,0.43,0.04,0.86,0.05,1.28c0.01,0.43,0.02,0.86,0.02,1.32v6.05c0,0.06-0.02,0.11-0.05,0.16s-0.09,0.09-0.17,0.12
				c-0.08,0.03-0.19,0.06-0.33,0.08c-0.14,0.02-0.31,0.03-0.53,0.03c-0.21,0-0.38-0.01-0.52-0.03c-0.14-0.02-0.24-0.04-0.32-0.08
				c-0.08-0.03-0.13-0.07-0.16-0.12c-0.03-0.05-0.04-0.1-0.04-0.16v-10.39c0-0.28,0.08-0.49,0.25-0.63c0.16-0.14,0.36-0.21,0.6-0.21
				h1.26c0.23,0,0.42,0.02,0.57,0.06c0.16,0.04,0.29,0.1,0.42,0.19c0.12,0.09,0.24,0.21,0.34,0.37c0.11,0.16,0.22,0.35,0.33,0.59
				l2.25,4.22c0.13,0.26,0.26,0.51,0.39,0.75c0.13,0.25,0.25,0.49,0.37,0.74c0.12,0.25,0.24,0.49,0.35,0.73
				c0.11,0.24,0.22,0.48,0.33,0.71h0.01c-0.02-0.42-0.03-0.85-0.04-1.3s-0.01-0.88-0.01-1.3v-5.42c0-0.06,0.02-0.11,0.05-0.16
				c0.04-0.05,0.1-0.09,0.18-0.13c0.08-0.04,0.19-0.06,0.33-0.08c0.14-0.02,0.31-0.02,0.53-0.02c0.2,0,0.37,0.01,0.51,0.02
				c0.14,0.01,0.24,0.04,0.32,0.08c0.07,0.04,0.13,0.08,0.16,0.13c0.03,0.05,0.04,0.1,0.04,0.16V162.36z"/>
			<path class="st0" d="M144.18,152.59c0,0.17-0.01,0.32-0.02,0.44c-0.01,0.12-0.04,0.22-0.07,0.29c-0.03,0.07-0.07,0.13-0.11,0.17
				c-0.04,0.04-0.09,0.05-0.15,0.05h-2.89v9.32c0,0.06-0.02,0.11-0.06,0.16c-0.04,0.05-0.1,0.09-0.19,0.12
				c-0.09,0.03-0.21,0.05-0.36,0.07c-0.15,0.02-0.34,0.03-0.57,0.03c-0.23,0-0.42-0.01-0.57-0.03c-0.15-0.02-0.27-0.04-0.36-0.07
				c-0.09-0.03-0.15-0.07-0.19-0.12c-0.04-0.05-0.06-0.1-0.06-0.16v-9.32h-2.89c-0.06,0-0.11-0.02-0.15-0.05
				c-0.04-0.04-0.08-0.09-0.11-0.17c-0.03-0.07-0.05-0.17-0.07-0.29c-0.01-0.12-0.02-0.27-0.02-0.44c0-0.18,0.01-0.33,0.02-0.46
				c0.02-0.13,0.04-0.23,0.07-0.3c0.03-0.07,0.07-0.13,0.11-0.16s0.09-0.05,0.15-0.05h8.15c0.05,0,0.1,0.02,0.15,0.05
				c0.04,0.03,0.08,0.09,0.11,0.16c0.03,0.07,0.05,0.17,0.07,0.3C144.17,152.26,144.18,152.41,144.18,152.59z"/>
			<path class="st0" d="M152.4,162.26c0,0.17-0.01,0.32-0.02,0.43c-0.01,0.12-0.04,0.21-0.07,0.28s-0.07,0.12-0.11,0.16
				c-0.04,0.03-0.09,0.05-0.15,0.05h-5.81c-0.2,0-0.36-0.06-0.5-0.17c-0.13-0.12-0.2-0.3-0.2-0.57v-10.07c0-0.26,0.07-0.45,0.2-0.57
				c0.13-0.12,0.3-0.17,0.5-0.17h5.77c0.05,0,0.1,0.02,0.14,0.04c0.04,0.03,0.08,0.08,0.11,0.16c0.03,0.07,0.05,0.17,0.07,0.29
				c0.01,0.12,0.02,0.26,0.02,0.44c0,0.17-0.01,0.31-0.02,0.42c-0.02,0.12-0.04,0.21-0.07,0.28c-0.03,0.07-0.07,0.12-0.11,0.16
				c-0.04,0.03-0.09,0.05-0.14,0.05h-4.13v2.82h3.49c0.05,0,0.1,0.02,0.15,0.05c0.04,0.03,0.08,0.08,0.11,0.15
				c0.03,0.07,0.05,0.16,0.07,0.28c0.02,0.12,0.02,0.26,0.02,0.42c0,0.17-0.01,0.32-0.02,0.43c-0.01,0.11-0.04,0.2-0.07,0.27
				c-0.03,0.07-0.07,0.12-0.11,0.15c-0.04,0.03-0.09,0.04-0.15,0.04h-3.49v3.26h4.16c0.05,0,0.1,0.02,0.15,0.05
				c0.04,0.03,0.08,0.09,0.11,0.16c0.03,0.07,0.05,0.17,0.07,0.28C152.39,161.94,152.4,162.09,152.4,162.26z"/>
			<path class="st0" d="M162.19,161.43c0,0.15,0,0.28-0.01,0.38s-0.02,0.19-0.04,0.27c-0.02,0.07-0.04,0.14-0.07,0.19
				c-0.03,0.05-0.08,0.11-0.14,0.18c-0.07,0.07-0.19,0.16-0.38,0.26c-0.19,0.11-0.42,0.21-0.69,0.31c-0.27,0.1-0.58,0.18-0.93,0.25
				c-0.35,0.07-0.73,0.1-1.13,0.1c-0.79,0-1.51-0.12-2.14-0.37c-0.64-0.24-1.18-0.61-1.63-1.09c-0.45-0.49-0.79-1.09-1.03-1.82
				c-0.24-0.73-0.36-1.57-0.36-2.54c0-0.98,0.13-1.85,0.39-2.62c0.26-0.76,0.63-1.4,1.1-1.92c0.47-0.52,1.03-0.91,1.69-1.18
				c0.66-0.27,1.38-0.4,2.17-0.4c0.32,0,0.63,0.03,0.93,0.08c0.3,0.05,0.57,0.12,0.83,0.21c0.25,0.09,0.48,0.19,0.68,0.3
				s0.34,0.21,0.42,0.29c0.08,0.08,0.14,0.15,0.17,0.2c0.03,0.05,0.05,0.12,0.07,0.21c0.02,0.08,0.03,0.18,0.04,0.29
				c0.01,0.11,0.01,0.25,0.01,0.42c0,0.18-0.01,0.33-0.02,0.46c-0.01,0.13-0.03,0.23-0.06,0.3c-0.03,0.08-0.07,0.13-0.11,0.17
				c-0.04,0.04-0.09,0.05-0.14,0.05c-0.09,0-0.2-0.05-0.34-0.16s-0.31-0.22-0.53-0.35c-0.22-0.13-0.48-0.24-0.78-0.35
				c-0.3-0.1-0.66-0.16-1.08-0.16c-0.46,0-0.87,0.09-1.23,0.28c-0.36,0.19-0.67,0.46-0.92,0.8c-0.25,0.35-0.44,0.77-0.58,1.26
				c-0.13,0.49-0.2,1.05-0.2,1.67c0,0.68,0.07,1.27,0.21,1.76c0.14,0.5,0.34,0.91,0.6,1.23c0.26,0.32,0.57,0.56,0.94,0.72
				c0.37,0.16,0.78,0.24,1.24,0.24c0.42,0,0.78-0.05,1.08-0.15c0.3-0.1,0.56-0.21,0.78-0.33c0.22-0.12,0.4-0.23,0.54-0.32
				c0.14-0.1,0.25-0.14,0.33-0.14c0.06,0,0.11,0.01,0.14,0.04c0.04,0.02,0.07,0.07,0.09,0.14c0.02,0.07,0.04,0.17,0.05,0.3
				C162.19,161.05,162.19,161.22,162.19,161.43z"/>
			<path class="st0" d="M172.9,162.86c0,0.06-0.02,0.11-0.06,0.16c-0.04,0.05-0.1,0.09-0.19,0.12c-0.09,0.03-0.21,0.05-0.36,0.07
				c-0.15,0.02-0.34,0.03-0.56,0.03c-0.23,0-0.42-0.01-0.58-0.03c-0.15-0.02-0.27-0.04-0.36-0.07c-0.09-0.03-0.15-0.07-0.19-0.12
				c-0.04-0.05-0.06-0.1-0.06-0.16v-4.67h-4.32v4.67c0,0.06-0.02,0.11-0.05,0.16c-0.04,0.05-0.1,0.09-0.19,0.12
				c-0.09,0.03-0.21,0.05-0.36,0.07c-0.15,0.02-0.34,0.03-0.57,0.03c-0.23,0-0.42-0.01-0.57-0.03c-0.15-0.02-0.27-0.04-0.36-0.07
				c-0.09-0.03-0.15-0.07-0.19-0.12c-0.04-0.05-0.06-0.1-0.06-0.16v-10.91c0-0.06,0.02-0.11,0.06-0.16c0.04-0.05,0.1-0.09,0.19-0.12
				c0.09-0.03,0.21-0.05,0.36-0.07c0.15-0.02,0.34-0.03,0.57-0.03c0.23,0,0.42,0.01,0.57,0.03c0.15,0.02,0.27,0.04,0.36,0.07
				c0.09,0.03,0.15,0.07,0.19,0.12c0.04,0.05,0.05,0.1,0.05,0.16v4.24h4.32v-4.24c0-0.06,0.02-0.11,0.06-0.16
				c0.04-0.05,0.1-0.09,0.19-0.12c0.09-0.03,0.21-0.05,0.36-0.07c0.15-0.02,0.34-0.03,0.58-0.03c0.23,0,0.41,0.01,0.56,0.03
				c0.15,0.02,0.27,0.04,0.36,0.07c0.09,0.03,0.15,0.07,0.19,0.12c0.04,0.05,0.06,0.1,0.06,0.16V162.86z"/>
		</g>
	</g>
	<circle class="st0" cx="157.76" cy="36.14" r="5.1"/>
	<path class="st2" d="M36.88,86.73h-0.91c-2.56,0-4.65-2.09-4.65-4.65V29.17c0-2.56,2.09-4.65,4.65-4.65h0.91
		c2.56,0,4.65,2.09,4.65,4.65v52.91C41.53,84.64,39.44,86.73,36.88,86.73z"/>
	<path class="st3" d="M36.88,122.65h-0.91c-2.56,0-4.65-2.09-4.65-4.65v-7.11c0-2.56,2.09-4.65,4.65-4.65h0.91
		c2.56,0,4.65,2.09,4.65,4.65V118C41.53,120.56,39.44,122.65,36.88,122.65z"/>
	<path class="st2" d="M51.83,70.71h-0.91c-2.56,0-4.65-2.09-4.65-4.65v-44.8c0-2.56,2.09-4.65,4.65-4.65h0.91
		c2.56,0,4.65,2.09,4.65,4.65v44.8C56.48,68.62,54.39,70.71,51.83,70.71z"/>
	<path class="st2" d="M66.99,85.95h-0.91c-2.56,0-4.65-2.09-4.65-4.65V16.05c0-2.56,2.09-4.65,4.65-4.65h0.91
		c2.56,0,4.65,2.09,4.65,4.65v65.26C71.64,83.86,69.55,85.95,66.99,85.95z"/>
	<path class="st3" d="M51.83,125.4h-0.91c-2.56,0-4.65-2.09-4.65-4.65V94.87c0-2.56,2.09-4.65,4.65-4.65h0.91
		c2.56,0,4.65,2.09,4.65,4.65v25.88C56.48,123.31,54.39,125.4,51.83,125.4z"/>
	<path class="st3" d="M66.99,146.83h-0.91c-2.56,0-4.65-2.09-4.65-4.65v-32.55c0-2.56,2.09-4.65,4.65-4.65h0.91
		c2.56,0,4.65,2.09,4.65,4.65v32.55C71.64,144.74,69.55,146.83,66.99,146.83z"/>
	<path class="st2" d="M82.15,71.58h-0.91c-2.56,0-4.65-2.09-4.65-4.65V11.71c0-2.56,2.09-4.65,4.65-4.65h0.91
		c2.56,0,4.65,2.09,4.65,4.65v55.23C86.8,69.49,84.71,71.58,82.15,71.58z"/>
	<path class="st3" d="M82.15,130.7h-0.91c-2.56,0-4.65-2.09-4.65-4.65V95.26c0-2.56,2.09-4.65,4.65-4.65h0.91
		c2.56,0,4.65,2.09,4.65,4.65v30.79C86.8,128.61,84.71,130.7,82.15,130.7z"/>
	<path class="st2" d="M97.31,56.66h-0.91c-2.56,0-4.65-2.09-4.65-4.65V16.05c0-2.56,2.09-4.65,4.65-4.65h0.91
		c2.56,0,4.65,2.09,4.65,4.65v35.96C101.96,54.57,99.87,56.66,97.31,56.66z"/>
	<path class="st3" d="M97.31,123.87h-0.91c-2.56,0-4.65-2.09-4.65-4.65v-38.9c0-2.56,2.09-4.65,4.65-4.65h0.91
		c2.56,0,4.65,2.09,4.65,4.65v38.9C101.96,121.78,99.87,123.87,97.31,123.87z"/>
	<path class="st2" d="M112.59,71.82h-0.91c-2.56,0-4.65-2.09-4.65-4.65V13.83c0-2.56,2.09-4.65,4.65-4.65h0.91
		c2.56,0,4.65,2.09,4.65,4.65v53.34C117.24,69.73,115.15,71.82,112.59,71.82z"/>
	<path class="st3" d="M112.59,124.64h-0.91c-2.56,0-4.65-2.09-4.65-4.65v-24.5c0-2.56,2.09-4.65,4.65-4.65h0.91
		c2.56,0,4.65,2.09,4.65,4.65v24.5C117.24,122.55,115.15,124.64,112.59,124.64z"/>
	<path class="st2" d="M127.63,57.11h-0.91c-2.56,0-4.65-2.09-4.65-4.65V19.82c0-2.56,2.09-4.65,4.65-4.65h0.91
		c2.56,0,4.65,2.09,4.65,4.65v32.64C132.28,55.02,130.19,57.11,127.63,57.11z"/>
	<path class="st3" d="M127.63,115.67h-0.91c-2.56,0-4.65-2.09-4.65-4.65V80.78c0-2.56,2.09-4.65,4.65-4.65h0.91
		c2.56,0,4.65,2.09,4.65,4.65v30.24C132.28,113.58,130.19,115.67,127.63,115.67z"/>
	<path class="st2" d="M142.79,42.04h-0.91c-2.56,0-4.65-2.09-4.65-4.65v-5.44c0-2.56,2.09-4.65,4.65-4.65h0.91
		c2.56,0,4.65,2.09,4.65,4.65v5.44C147.44,39.95,145.35,42.04,142.79,42.04z"/>
	<path class="st3" d="M142.79,108.52h-0.91c-2.56,0-4.65-2.09-4.65-4.65V65.72c0-2.56,2.09-4.65,4.65-4.65h0.91
		c2.56,0,4.65,2.09,4.65,4.65v38.15C147.44,106.42,145.35,108.52,142.79,108.52z"/>
	<path class="st0" d="M158.21,84.26h-0.91c-2.56,0-4.65-2.09-4.65-4.65V49.88c0-2.56,2.09-4.65,4.65-4.65h0.91
		c2.56,0,4.65,2.09,4.65,4.65v29.74C162.86,82.17,160.77,84.26,158.21,84.26z"/>
	<path class="st4" d="M15.77,51.72"/>
	<g>
		<path class="st0" d="M21.45,111.17h-0.91c-2.66,0-4.84-2.18-4.84-4.84V53.22c0-2.66,2.18-4.84,4.84-4.84h0.91
			c2.46,0,4.45,1.99,4.45,4.45v53.88C25.9,109.18,23.91,111.17,21.45,111.17z"/>
		<path class="st0" d="M10.79,72.43c0-1.75-2.41-2.21-3.06-0.58L1.85,86.71c-0.25,0.62-0.36,1.26-0.37,1.89
			c-0.14,1.06,0.03,2.17,0.57,3.18l0,0c2.28,4.26,8.73,2.64,8.73-2.19V72.43z"/>
	</g>
	<path class="st4" d="M15.83,50.82"/>
</g>
</svg>
